<svg width="223" height="264" viewBox="0 0 223 264" fill="none" xmlns="http://www.w3.org/2000/svg">
<g clip-path="url(#clip0_3_528)">
<path d="M160.139 43.078C159.91 44.1676 158.92 42.1915 159.03 42.6355C158.602 42.5117 158.895 43.4951 159.263 43.8646C159.579 44.2817 160.633 43.9916 161.368 45.1064C161.294 44.9971 161.338 44.9563 161.258 44.8467C161.714 45.1418 161.566 45.8164 162.191 46.1327C161.962 46.6906 162.654 46.7756 162.175 47.2027L161.624 46.1166C161.859 46.7927 161.623 47.7048 162.513 48.4786C162.576 48.3323 162.535 47.9548 162.502 47.7124C162.835 47.8962 162.732 48.3245 163.079 48.5089C163.572 48.0752 162.417 47.1772 162.404 46.3045C162.83 46.4567 162.799 47.7175 163.168 47.0306C162.719 47.9553 163.954 48.0838 163.859 49.2072L164.153 48.9569C164.175 49.1067 164.175 49.4541 164.322 49.6729L164.498 49.0065C164.52 49.8511 165.556 50.014 165.725 50.73C164.961 49.4721 165.16 50.6856 164.594 50.3079C165.102 52.1013 166.011 50.6708 166.857 52.5347C166.768 52.2687 166.151 51.7542 166.21 52.2175C166.468 52.5117 166.85 52.8818 167.136 52.9928C167.724 54.2009 166.688 53.0099 166.77 53.623C167.401 53.7906 166.927 54.2888 167.087 54.8697L167.428 54.6851C168.392 55.9015 166.93 55.4163 167.829 56.4883L168.038 55.7169L168.243 56.4201L168.569 56.079C168.634 56.9253 168.818 57.103 169.282 57.7247C168.957 57.6901 168.698 58.1333 168.999 58.7412C169.412 59.0488 169.214 58.3458 169.597 59.2194C169.715 58.9194 169.878 58.5715 169.369 58.3593C169.465 58.264 169.488 58.0593 169.584 57.9639C170.046 58.2877 170.213 59.0532 170.363 59.3642C170.29 59.2478 170.196 59.1163 170.113 59.0704C170.171 59.562 170.215 60.053 170.244 60.5576C170.465 60.6943 170.502 60.4831 170.532 60.2787C170.613 60.5514 170.531 60.8104 170.678 61.1993C170.922 60.9682 171.224 60.853 171.107 60.2526L171.349 61.6096C171.512 61.6305 171.983 62.0681 172.013 61.8637C172.484 62.4644 172.233 63.7516 172.832 64.5489C172.793 64.6183 172.781 64.7383 172.815 64.9453C173.236 65.7637 173.906 66.3654 173.929 67.5363L174.694 67.8937C174.901 68.7317 173.708 67.3854 174.055 68.7752C174.234 69.7822 174.637 68.9478 174.909 69.2213C174.815 69.7918 174.575 70.81 175.326 71.5073C175.318 71.1879 175.156 70.9898 175.097 70.7108L175.634 71.2575C175.823 70.2797 175.44 69.7606 176.088 70.2267C175.097 70.7038 176.945 72.8426 175.941 73.2979L176.302 73.6601C176.25 73.5374 176.308 73.4973 176.257 73.3746C177.037 74.0588 175.717 74.2672 176.22 75.3158C176.425 75.6717 176.664 75.8941 176.705 75.5909L176.73 76.5279C176.834 76.7732 176.995 76.6522 176.891 76.4069L177.234 77.7397L177.263 77.7196C177.161 77.9565 177.02 78.4612 176.975 78.7004C177.218 78.9869 177.04 78.4975 177.194 78.5463L177.147 79.3527C177.506 79.573 177.598 78.889 177.413 78.3922C178.653 78.762 177.321 79.0762 178.353 80.3734L178.291 79.6405C179.017 79.9184 178.95 80.5183 179.553 81.2024C179.303 81.0645 178.167 79.8907 178.131 80.7614C178.272 80.9656 178.395 81.2472 178.304 81.7327C178.491 81.6836 178.593 81.7729 178.665 81.9318C178.697 82.0111 178.728 82.1188 178.752 82.2332C178.782 82.362 178.801 82.4266 178.84 82.6764L179.329 82.4979C179.351 83.5198 179.085 83.4451 178.828 84.0159C178.841 84.5483 178.856 84.8963 178.922 85.1755C178.996 85.455 179.122 85.6517 179.227 85.8616C178.777 86.8145 178.801 86.3972 178.787 86.0563C178.759 85.7006 178.691 85.4568 178.115 86.3479C177.946 86.6742 177.723 86.9416 177.5 87.1806C177.258 87.3834 176.995 87.5641 176.72 87.7088C176.15 87.9549 175.52 88.0993 174.763 88.0613C173.914 88.3598 174.963 88.3531 174.665 88.5465C174.37 88.4636 174.092 88.3316 173.836 88.1864C173.644 88.1928 173.695 88.3225 173.728 88.3877C173.391 88.303 173.397 88.1614 173.346 88.0246C173.302 87.8881 173.208 87.7495 172.761 87.5895C172.732 87.4394 172.6 87.3631 172.389 87.3261C172.283 87.3076 172.156 87.2953 172.008 87.2821C171.867 87.2551 171.713 87.2133 171.552 87.1713C170.884 87.0234 170.143 86.4188 170.123 85.7019C169.834 85.4915 169.92 85.9843 169.7 85.9965C169.563 85.523 169.562 85.1968 169.523 84.947C169.507 84.8117 169.503 84.7264 169.513 84.663C169.516 84.5922 169.525 84.5359 169.535 84.4725C169.566 84.2327 169.618 84.0079 169.761 83.4607L169.208 82.7504C169.749 83.2333 169.976 82.3634 170.149 81.5906C170.184 81.6133 170.218 81.636 170.253 81.6586C170.228 81.5796 170.21 81.5009 170.184 81.4289C170.168 81.485 170.159 81.5343 170.149 81.5906C170.108 81.5605 170.059 81.5302 170.011 81.4999C170.057 81.4237 170.102 81.3618 170.147 81.2927C170.098 81.1205 170.048 80.9412 169.998 80.769C169.848 80.8125 169.72 80.9987 169.598 81.2064L170.011 81.4999C169.784 81.8522 169.522 82.1889 169.216 82.2189C169.255 82.1354 169.268 81.9871 169.253 81.8375C169.192 81.9272 169.133 81.9957 169.07 81.9789C169.007 81.9551 169.083 81.8164 169.163 81.607L168.542 81.5319L168.745 81.4126C168.5 80.9914 168.27 80.5636 167.996 80.1553C168.233 79.0235 168.768 77.911 168.481 76.2755C168.204 76.796 167.858 76.5833 167.39 76.7627C168.025 77.0155 167.565 78.0248 167.931 78.7843C167.742 78.3866 167.544 78.5486 167.503 78.6817L167.496 77.1145C167.121 77.2764 167.107 76.9142 166.83 76.598C167.701 76.6123 166.965 75.3698 166.977 74.718C166.713 74.7781 166.498 75.0033 166.818 75.6757C165.961 75.116 167.34 74.357 166.576 73.7798C166.633 73.9523 166.708 74.0263 166.604 74.1426C166.68 73.6636 166.143 72.7553 166.01 73.0689L166.066 73.2414C165.594 72.1373 164.688 69.8526 165.266 69.4154C165.18 69.4402 164.566 69.883 164.462 69.9993C164.765 69.3382 165.055 68.6693 165.352 67.9937C165.261 67.7915 165.185 67.5827 165.094 67.3734C164.484 67.547 163.747 67.7225 163.802 68.455C163.62 68.2207 163.383 67.9416 163.317 67.3149C163.474 67.4561 164.298 67.4118 164.238 67.147C163.333 66.7483 163.705 66.8274 162.815 66.2379C163.054 66.4533 163.756 65.773 163.531 65.3597C163.434 65.4833 162.688 65.708 162.672 65.9059L163.007 64.4732C162.98 64.8053 162.333 64.8498 161.997 64.7297C162.209 64.7596 161.566 63.8329 161.493 63.5321L161.905 63.8751C161.191 62.7823 162.464 62.1608 161.83 61.0217C161.735 61.2518 160.979 61.8945 160.582 61.3607C160.728 61.1043 161.115 60.482 161.399 59.7775C161.168 59.3497 160.93 58.9217 160.7 58.4939C160.474 59.3284 160.273 60.249 160.186 60.8339C159.781 60.4983 159.851 60.8557 159.538 60.2048C159.195 60.0986 159.396 60.7307 159.473 60.9253C159.18 60.4454 158.844 59.9921 158.53 59.5254C159.042 59.3336 158.374 58.1364 158.8 57.9695L159.205 59.8437C159.716 59.6519 160.039 58.1762 159.357 57.1627C159.016 56.9999 158.628 57.8419 158.462 57.906C158.549 57.6827 158.212 56.733 158.05 56.7051L158.047 57.2935C157.549 56.8123 158.144 55.9787 157.267 55.5599C157.092 55.3401 156.239 55.213 156.489 55.0105C156.948 55.0506 157.734 54.7353 158.344 54.3774C158.178 54.1011 158.012 53.832 157.845 53.5629L157.683 53.7122L157.591 53.5524L157.772 53.4464C157.599 53.1699 157.433 52.8866 157.26 52.6101C156.821 52.7694 156.78 53.7816 156.295 53.6838C156.412 53.5893 156.432 53.2781 156.43 53.1575C156.168 52.9766 156.103 53.5058 155.829 52.9273C156.242 52.5401 155.107 51.8555 156.063 52.4193C155.868 51.8087 155.608 51.9257 155.222 51.3072C155.506 51.3046 155.698 50.7736 155.727 50.2359C155.58 50.0101 155.433 49.7914 155.279 49.5724C155.258 49.5715 155.229 49.5704 155.215 49.5698C154.464 48.5251 153.879 48.0971 153.166 47.1391C152.989 47.1319 152.522 46.7582 152.473 47.0895C152.453 46.8972 152.512 46.6586 152.305 46.3523C151.502 46.0571 152.723 47.0572 151.947 46.9545C152.176 46.7299 151.748 45.9254 151.6 45.3875C152.089 45.2232 152.385 46.313 152.533 46.8508C152.723 46.7168 152.853 46.4811 152.921 46.1932C152.176 45.163 151.41 44.139 150.629 43.1356C149.927 42.5965 148.757 40.7122 147.659 39.9725C147.618 39.7722 147.53 39.4992 147.571 39.3732C147.07 38.7785 146.54 38.2108 146.025 37.6296C145.909 37.5327 145.792 37.4358 145.669 37.3385L145.835 37.4163C145.327 36.8424 144.827 36.2547 144.304 35.6874C144.273 35.7358 144.229 35.7836 144.171 35.8096L143.876 35.2232C143.876 35.2232 143.842 35.1864 143.829 35.1716C143.776 35.2475 143.816 35.4831 143.635 35.4048C143.702 35.3154 143.715 35.1741 143.679 35.0095C143.441 34.7587 143.218 34.4944 142.98 34.2506C142.959 34.2498 142.945 34.235 142.924 34.2271C142.918 34.2126 142.925 34.1988 142.919 34.1843C142.715 33.9704 142.497 33.7629 142.285 33.5487C142.258 33.5333 142.236 33.5395 142.195 33.5095C142.176 33.4449 142.135 33.4078 142.095 33.3636C139.229 30.4386 136.216 27.6495 133.04 25.045C130.063 22.6047 133.293 17.4759 136.305 19.9459C136.696 20.2668 137.072 20.6083 137.463 20.9292C137.884 20.8614 138.319 20.787 138.516 20.4972C138.617 21.494 140.659 20.9749 140.908 22.5095C141.21 22.5715 140.907 22.1691 141.129 22.1356C141.131 22.5895 141.353 22.8893 141.956 23.2401L141.96 23.1268C143.294 24.5002 144.162 24.7696 145.835 26.1569L145.453 26.3185C145.817 26.6099 145.973 26.595 146.19 26.6748C146.158 27.4605 145.248 25.7783 145.137 26.575C146.114 26.459 147.462 28.861 148.375 28.5509C148.864 29.0743 147.915 28.7023 148.404 29.2257L148.703 29.2025L148.604 29.5458C148.96 29.8511 149.337 29.824 149.498 29.6959C149.401 29.6281 149.318 29.4191 149.251 29.3171C149.872 29.5693 150.346 30.6381 150.555 30.7317L149.976 30.3252C151.16 31.8767 152.93 33.5019 153.788 35.2387L153.554 35.2433C154.231 36.5401 154.444 35.9958 155.305 37.3215L155.308 37.2507C155.357 37.6072 155.547 37.9978 155.831 38.3214C155.75 37.8785 156.619 38.6515 156.478 38.0998C157.164 39.5388 156.737 38.8761 156.836 40.0926L157.212 40.1079C157.202 40.5259 157.119 40.6501 157.449 41.2379C157.469 41.2742 157.482 41.3031 157.502 41.3393C157.489 41.3034 157.497 41.2824 157.491 41.2538C157.432 40.7764 158.15 41.4297 158.01 40.6936C158.439 40.9664 158.695 41.2747 158.874 41.5798C159.318 42.3425 159.267 43.0707 160.145 43.1136L160.139 43.078ZM178.096 80.7458C178.12 80.5269 178.252 80.0714 177.993 79.99C177.624 80.3365 177.882 80.4463 178.096 80.7458ZM169.248 80.9156C169.227 80.7233 169.157 80.529 168.995 80.331C168.91 80.5118 169.037 80.7084 169.248 80.9156Z" fill="#316EFF"/>
<path d="M115.892 39.7083C115.539 39.311 115.33 39.9051 115.098 40.7464C114.858 41.5874 114.636 42.6774 114.383 43.3122C114.632 43.4501 114.969 43.1944 115.241 41.5606C115.447 43.4692 113.879 43.6745 113.939 45.5062C114.047 45.1207 114.055 44.9012 114.231 44.7808C113.763 45.6338 113.387 47.9014 113.746 47.434L113.847 47.0482C113.595 48.3637 113.005 50.3107 112.406 51.9524C111.814 53.6015 111.094 54.8979 110.722 54.9749C110.798 55.0276 111.618 54.9194 111.799 54.8134L109.93 56.6654L109.208 57.3166C109.026 57.7842 108.844 58.2589 108.654 58.7262C109.169 59.1372 109.743 59.6782 110.521 58.3416C110.36 58.9661 110.166 59.7381 109.473 60.908C109.554 60.4717 109.087 59.5805 108.818 60.1084C108.803 61.8591 108.692 61.2731 108.395 63.3384C108.549 62.6924 107.41 62.972 107.017 63.9131C107.205 63.8286 107.806 64.3779 108.053 64.076C107.444 64.7389 106.774 65.3566 106.124 65.9824C106.556 65.4895 106.866 66.2184 106.84 66.8483C106.79 66.5201 105.893 68.8587 105.453 69.3937C105.559 69.0436 105.687 68.7013 105.78 68.3364C105.166 69.6443 104.523 70.1143 103.895 70.5708C103.252 71.0266 102.659 71.4845 101.929 72.6954C102.27 72.4967 103.367 72.5486 102.704 73.8545C102.328 74.0235 101.47 74.3642 100.506 74.8919C100.441 74.9247 100.375 74.9646 100.31 75.0045C100.249 75.0942 100.196 75.1842 100.143 75.2812C99.6273 76.0897 99.0846 76.8758 98.5491 77.6622C98.7165 77.5556 98.8766 77.4558 99.044 77.3492C100.158 76.629 101.333 75.8192 102.04 75.1674C101.644 76.1935 102.178 75.6127 101.251 76.9503C101.134 77.5623 102.074 76.4238 102.325 76.0086C101.705 77.1177 101.017 78.1815 100.362 79.2749C100.18 79.0477 99.6757 79.5872 99.1582 80.1049C98.6265 80.622 98.102 81.1394 97.9608 80.9493C98.9366 79.9753 99.8442 78.9347 100.766 77.8947C100.387 77.4538 98.2166 79.0312 96.6961 81.1883C96.4701 81.8597 97.7742 81.3529 97.8884 81.5065C97.527 81.676 96.1185 83.3485 96.0441 83.6077C96.3586 83.3725 96.6663 83.1298 96.9602 82.8795C96.2253 84.2037 94.8868 84.3403 94.185 86.07C93.8379 86.5805 93.5275 87.9291 93.2136 87.8029C93.3343 87.1059 92.8905 86.3432 92.3566 85.8747C91.9096 86.4024 91.449 86.9153 90.9952 87.4356L91.212 87.5083L90.9448 87.8022L90.8019 87.6546C90.3337 88.1814 89.8722 88.7155 89.3898 89.2418C89.4737 89.4437 89.8309 89.3803 90.1885 89.3028C90.6539 89.1942 91.1345 89.0579 91.0092 89.5207C90.8773 89.4515 90.3688 89.7498 90.1654 89.8691C89.8166 90.422 90.6854 89.9825 89.674 90.9621C89.1152 90.7549 87.7444 93.067 88.8802 91.1282C87.8094 91.9991 87.9889 92.29 86.8095 93.3904C86.8826 92.9892 86.0381 93.1816 85.1418 93.5987C84.721 94.0069 84.3143 94.4157 83.8866 94.8165C83.8781 94.8516 83.8696 94.8867 83.8614 94.9147C81.8266 96.8168 80.9047 98.0341 78.8807 99.6742C78.778 99.9324 77.9105 100.861 78.4772 100.7C78.1231 100.863 77.7507 100.954 77.1004 101.424C76.1597 102.754 78.5613 100.377 77.9812 101.559C77.6982 101.37 76.0501 102.487 75.0212 103.026C74.9969 102.408 77.0747 101.359 78.0841 100.776C77.9424 100.6 77.6032 100.572 77.132 100.652C74.9626 102.378 72.7328 104.024 70.4424 105.59C69.8252 106.118 68.703 106.859 67.4638 107.687C66.6538 108.25 65.7464 108.766 64.916 109.306C64.072 109.832 63.3047 110.389 62.6553 110.837C62.2611 110.942 61.7003 111.131 61.5098 111.109C58.4111 112.847 55.2328 114.454 51.9968 115.91C52.052 115.948 52.0782 115.999 52.068 116.076C51.6295 116.221 51.1852 116.338 50.7405 116.462C50.6901 116.481 50.6397 116.5 50.589 116.526C50.6713 116.593 51.1275 116.534 50.7921 116.761C50.7177 116.673 50.4773 116.656 50.1632 116.707C49.4775 117.006 48.7846 117.303 48.0923 117.587C48.0558 117.614 48.0195 117.634 47.9904 117.654C47.9618 117.66 47.9408 117.652 47.9122 117.658C47.8114 117.696 47.71 117.749 47.6091 117.787C47.1477 117.974 46.673 118.139 46.2119 118.318C46.1606 118.359 46.0807 118.405 45.943 118.478C45.7505 118.505 45.5686 118.618 45.3834 118.639C33.7071 123.11 21.51 125.93 9.05295 127.129C5.22332 127.497 3.8194 121.604 7.6847 121.231C8.76671 121.126 9.84222 121.007 10.918 120.881C11.4801 120.485 12.093 120.064 11.9509 119.725C12.7695 119.992 13.7583 119.565 14.8658 119.185C15.9741 118.783 17.2069 118.458 18.5443 118.697C19.0726 118.435 18.026 118.541 18.2907 118.311C18.9842 118.516 19.7675 118.435 21.1672 118.017L20.9919 117.967C23.0043 117.653 24.4042 117.228 25.8611 116.798C26.5865 116.573 27.3325 116.362 28.1593 116.084C28.9792 115.798 29.8994 115.489 30.9845 115.136L30.7601 115.595C31.6945 115.285 31.8572 115.122 32.2773 114.905C33.5215 115.169 29.63 115.662 30.7858 116.007C31.8488 114.98 37.4331 114.01 37.9896 112.884C39.4075 112.368 37.7181 113.454 39.1363 112.931L39.4348 112.567L39.8962 112.728C40.8123 112.347 41.1782 111.894 41.1438 111.694C40.9269 111.799 40.4842 111.873 40.2404 111.941C40.7934 111.595 41.6488 111.311 42.4095 111.087C43.1643 110.834 43.8319 110.634 44.014 110.514L42.731 111.199C43.702 110.863 44.7106 110.472 45.7411 110.067C46.2529 109.861 46.7792 109.649 47.2981 109.443L48.8442 108.741C49.8772 108.272 50.9026 107.818 51.9124 107.399C52.9024 106.943 53.8769 106.522 54.8198 106.177L54.6303 106.475C57.4965 105.393 56.6971 105.176 59.6729 103.667L59.5443 103.69C60.2042 103.505 61.0543 103.178 61.8059 102.656C60.9865 102.927 62.9254 101.461 61.8743 101.85C64.8408 100.397 63.3889 101.224 65.5977 100.613C65.6828 100.439 65.7679 100.265 65.8462 100.084C66.6061 99.8812 66.7374 99.9645 68.1497 99.0651C66.8781 99.6441 68.7571 98.0831 67.3074 98.6832C69.7988 96.1901 71.865 96.1186 72.5594 94.3957C74.3458 94.0576 70.455 96.614 71.2802 96.2011C70.8484 96.8782 72.7115 95.8767 73.5291 95.1302C74.4222 94.4436 74.3215 93.0923 76.4583 91.2937C76.2523 91.4767 76.1968 91.4461 75.9837 91.6288C76.6349 90.7904 77.7451 90.5168 78.4234 89.3604C79.2868 89.2256 79.6058 88.1893 80.2026 88.5044L78.2341 90.1751C79.3839 89.2792 80.945 88.9034 82.3874 86.9204C82.1728 86.9684 81.5534 87.3755 81.1245 87.6345C81.511 87.0264 82.1673 86.7554 82.5278 86.0895C82.2221 85.9352 81.6884 86.5019 80.9882 87.1539C80.2882 87.7988 79.4837 88.5742 78.7528 88.9343C79.108 88.2256 81.2047 87.2337 80.1536 87.2757C81.6196 87.1443 81.9815 85.2305 83.7769 84.3255L83.4081 84.1544C83.6563 83.9802 84.2158 83.6486 84.5871 83.2384L83.536 83.6279C84.9301 82.827 85.1825 81.164 86.3131 80.2176C84.3389 82.5476 86.2226 81.0435 85.6003 82.2163C87.0214 80.9273 87.18 80.3452 87.3408 79.7066C87.5073 79.1037 87.6495 78.4004 88.823 76.924C88.4389 77.4755 87.9645 78.4984 88.5534 77.9695C88.9787 77.2778 89.4994 76.3349 89.6338 75.8228C91.3826 73.6325 89.6953 76.3996 90.6007 75.5858C90.8129 74.5593 91.5428 74.5679 92.3682 73.6303L92.0513 73.4046C93.6125 70.5969 93.2311 73.1621 94.5359 70.5567C94.1849 70.8188 93.8064 71.0586 93.4279 71.2984C93.7555 70.9147 94.0557 70.5087 94.3418 70.102L93.8086 70.1369C94.9225 68.9063 95.1126 68.4177 95.8235 66.9862C95.8548 67.4342 96.5813 67.1803 97.2427 65.9169C97.488 64.9485 96.6632 66.2193 97.6498 64.4588C97.2268 64.7463 96.7257 65.0378 96.637 65.9914C96.4804 66.0062 96.2214 66.2722 96.0577 66.2868C96.3132 65.2407 97.2168 63.9518 97.5552 63.3063C97.4386 63.5568 97.3055 63.8633 97.2699 64.0391C97.8689 63.2624 98.503 62.4942 99.0887 61.6957C99.1438 61.2158 98.8913 61.4962 98.639 61.7695C98.9226 61.2493 99.2536 60.958 99.64 60.1796C99.2613 60.2492 98.9851 60.0678 98.3468 61.1123L99.812 58.7474C99.7646 58.5185 100.055 57.3038 99.7958 57.5839C100.252 56.1278 101.744 54.3311 102.279 52.3536C102.374 52.2795 102.495 52.093 102.667 51.6959C102.932 50.7779 103.103 49.8844 103.346 48.9726C103.471 48.5168 103.61 48.0546 103.786 47.5796C103.947 47.1041 104.13 46.6011 104.378 46.0866L104.159 44.702C104.738 43.0241 104.401 46.5625 105.367 43.7588C105.727 42.7667 105.651 42.5438 105.49 42.4876C105.336 42.4246 105.106 42.5215 105.1 42.1455C105.401 41.548 105.898 40.6467 106.19 39.5738C106.358 38.9567 106.47 38.2806 106.436 37.5631C106.219 38.1711 106.192 38.6734 106.034 39.2483L106.017 37.7587C105.532 38.6819 105.294 39.4875 105.155 39.7583C105.094 39.8693 105.05 39.8888 105.012 39.7809C104.98 39.6945 104.952 39.5231 104.921 39.2383C105.46 39.239 105.842 37.872 106.027 36.4687C106.254 35.0741 106.481 33.6795 107.036 33.6454L106.941 32.6631C106.916 32.9386 106.843 32.9711 106.818 33.2466C106.52 31.3342 107.736 31.9441 107.793 29.5074C107.779 28.6559 107.668 28.0629 107.489 28.6299L107.697 27.7025L107.849 26.7657C107.839 26.3115 107.704 26.3272 107.669 26.652L107.798 24.0267L107.769 24.0468C107.941 23.6426 108.249 22.7051 108.331 22.2476C108.142 21.5167 108.231 22.6193 108.09 22.4292L108.283 20.8276C107.969 20.1908 107.759 21.5152 107.842 22.6105C106.681 21.1592 108.052 21.2861 107.273 18.1275L107.212 19.6281C106.534 18.707 106.745 17.5315 106.137 15.9184C106.257 16.1006 106.593 16.9085 106.911 17.4603C107.2 18.0181 107.471 18.3199 107.564 17.4445C107.427 16.9709 107.318 16.3425 107.435 15.3972C107.043 15.4308 107.038 14.5231 106.935 13.3915L106.433 13.534C106.439 13.2294 106.455 13.0032 106.484 12.82C106.502 12.7285 106.519 12.6513 106.536 12.5811C106.544 12.5459 106.553 12.5108 106.569 12.476C106.578 12.4268 106.587 12.3704 106.596 12.3212C106.697 11.9353 106.758 11.6613 106.944 11.1017C106.976 10.8265 107.015 10.5799 107.038 10.354C107.097 10.1366 107.148 9.93304 107.19 9.75752C107.269 9.38497 107.379 9.12005 107.446 8.87462C107.557 8.4112 107.642 8.07433 107.72 7.73718C108.062 7.34702 108.352 7.17456 108.52 7.05381C108.695 6.94043 108.774 6.9153 108.795 6.9374C108.828 6.98132 108.612 7.2419 108.439 7.48299C108.259 7.71671 108.156 7.989 108.277 7.97977C108.334 7.98209 108.443 7.90857 108.661 7.78276C108.878 7.66404 109.179 7.42816 109.633 7.23405C110.86 6.53267 112.193 6.35322 113.556 6.85562C114.218 7.13087 114.909 7.57037 115.37 8.25573C115.875 8.9145 116.083 9.72421 116.157 10.5143C116.507 11.8403 116.444 10.2495 116.653 10.7047L116.39 11.9277C116.435 12.2131 116.546 12.1042 116.605 12.0499C116.563 13.055 116.102 12.1995 116.152 13.7543C115.68 14.21 117.273 16.8561 116.76 18.8275C116.939 19.2957 117.06 18.5845 117.268 18.7135C116.953 21.3808 117.025 21.0009 116.519 23.1639C116.642 23.7788 116.724 24.3918 116.833 25.0061C116.477 23.6515 115.982 25.3754 115.567 26.8545C115.541 26.7896 115.522 26.7392 115.503 26.6746C115.497 26.8303 115.49 26.9861 115.484 27.1418C115.509 27.0436 115.534 26.9524 115.567 26.8474C115.599 26.9338 115.63 27.0273 115.669 27.121C115.6 27.2387 115.539 27.3426 115.478 27.4535C115.462 27.8499 115.439 28.246 115.416 28.6351C115.572 28.6273 115.761 28.3443 115.952 27.9976C115.879 27.7039 115.771 27.4088 115.669 27.121C115.997 26.546 116.353 25.9933 116.653 26.1261C116.59 26.2795 116.535 26.5821 116.493 26.9136C116.584 26.7614 116.659 26.6652 116.713 26.7383C116.766 26.8255 116.643 27.0687 116.506 27.4601C116.697 27.6523 116.873 27.8438 117.057 28.0357L116.818 28.1606L116.957 31.3499C116.599 32.4626 116.076 33.4693 115.638 34.6425C115.246 35.7255 114.792 36.9406 114.411 38.4707C114.377 38.604 114.343 38.7303 114.31 38.8636C114.867 38.064 115.022 38.7864 115.523 38.8282C115.473 38.6843 115.45 38.5345 115.45 38.3714C115.429 37.3283 116.226 35.8719 116.292 34.251C116.238 35.2272 116.501 35.0394 116.61 34.8028C116.338 35.8907 116.011 36.9621 115.669 38.033C115.832 38.0325 115.892 38.1413 115.913 38.3265C115.943 38.6256 115.866 39.1187 115.886 39.6655L115.892 39.7083ZM107.575 17.5088C107.515 17.9388 107.303 18.7951 107.546 19.0958C107.971 18.5885 107.737 18.2244 107.575 17.5088ZM116.137 30.2386C116.285 29.9256 116.256 29.4139 116.152 28.8424C116.092 29.2512 116.073 29.7184 116.137 30.2386Z" fill="#316EFF"/>
<path d="M164.874 150.051C164.892 150.13 164.834 150.333 164.807 150.488C164.787 150.636 164.803 150.757 164.973 150.757C164.787 150.806 164.546 150.789 164.296 151.027C164.163 151.844 164.898 150.513 164.945 151.281C164.676 151.093 163.994 151.639 163.497 151.838C163.267 151.389 164.228 150.954 164.726 150.726C164.549 150.563 164.304 150.475 164.014 150.456C163.184 151.322 162.328 152.145 161.438 152.931C160.985 153.622 159.263 154.792 158.466 155.731C158.274 155.751 158.009 155.811 157.884 155.75C156.628 156.641 155.326 157.453 153.984 158.199C154.024 158.243 154.058 158.294 154.076 158.359C153.876 158.408 153.676 158.442 153.476 158.476C153.454 158.49 153.433 158.496 153.411 158.509C153.472 158.582 153.698 158.606 153.585 158.757C153.518 158.669 153.385 158.614 153.23 158.608C152.947 158.76 152.657 158.911 152.367 159.055C152.36 159.069 152.345 159.082 152.33 159.103C152.316 159.102 152.302 159.102 152.295 159.102C152.056 159.219 151.803 159.337 151.564 159.447C151.542 159.468 151.52 159.495 151.476 159.529C151.412 159.526 151.362 159.546 151.311 159.565C148.052 161.076 144.596 162.19 140.988 162.851C137.166 163.552 135.784 157.653 139.62 156.952C140.092 156.865 140.55 156.756 141.015 156.655C141.193 156.286 141.379 155.897 141.258 155.573C142.08 156.089 142.676 154.177 143.969 154.798C144.149 154.571 143.7 154.623 143.772 154.414C144.125 154.641 144.473 154.62 144.998 154.272L144.908 154.219C146.545 153.712 147.114 153.139 148.723 152.12L148.763 152.526C149.106 152.292 149.133 152.151 149.261 151.979C149.95 152.284 148.246 152.526 148.911 152.908C148.987 152.429 149.638 152.115 150.241 151.757C150.415 151.658 150.488 151.611 150.561 151.557C150.635 151.497 150.701 151.443 150.746 151.381C150.836 151.257 150.834 151.122 150.671 150.959C150.904 150.806 150.99 151.291 151.268 151.104C151.213 151.045 151.159 150.986 151.098 150.927C151.231 150.968 151.364 151.009 151.504 151.043C151.66 150.879 151.369 150.704 151.11 150.623C151.109 150.658 150.945 150.666 150.895 150.678C150.815 150.561 150.93 150.509 151.103 150.452C151.268 150.402 151.476 150.34 151.427 150.317C151.447 150.367 151.458 150.424 151.456 150.488C151.672 150.405 151.868 150.299 152.043 150.179L152.298 149.998C152.378 149.966 152.315 149.949 152.266 149.933L152.126 149.877C151.686 149.71 151.367 149.534 151.184 149.151L151.429 149.076C151.242 148.792 151.011 148.718 150.814 148.682C150.708 148.664 150.602 148.645 150.484 148.605C150.365 148.557 150.082 148.376 149.8 148.151L149.826 148.216C149.661 147.905 149.383 147.595 149.038 147.369C149.234 147.767 148.198 147.278 148.476 147.757C147.484 146.539 148.029 147.079 147.7 145.924L147.335 146.009C147.253 145.587 147.329 145.462 146.835 144.903C147.115 145.51 146.168 144.911 146.45 145.632C144.803 144.99 145.247 143.498 144.052 143.591C144.189 142.505 145.313 144.316 145.182 143.886C145.612 143.946 145.216 143.036 144.854 142.716C144.521 142.355 143.476 142.759 142.704 141.7C142.785 141.802 142.741 141.85 142.815 141.945C142.365 141.672 142.477 141.017 141.872 140.716C142.108 140.158 141.416 140.087 141.916 139.661C142.078 140.022 142.263 140.363 142.433 140.717C142.318 140.393 142.327 139.997 142.258 139.604C142.204 139.198 142.072 138.788 141.64 138.423C141.571 138.562 141.591 138.924 141.624 139.16C141.298 138.983 141.414 138.57 141.082 138.379C140.584 138.77 141.673 139.686 141.674 140.544C141.24 140.406 141.342 139.134 140.938 139.812C141.429 138.911 140.159 138.759 140.367 137.655L140.053 137.883C140.045 137.734 140.073 137.395 139.947 137.17L139.716 137.805C139.749 136.991 138.782 136.718 138.705 135.984C139.282 137.313 139.261 136.092 139.761 136.531C139.527 134.777 138.465 135.953 137.907 134.186C138.037 134.475 138.445 134.882 138.462 134.478C138.255 134.158 137.939 133.741 137.683 133.582C137.353 132.306 138.12 133.649 138.173 133.041C137.596 132.763 138.151 132.374 138.132 131.799L137.759 131.904C137.134 130.546 138.435 131.315 137.81 130.127C137.674 130.348 137.558 130.57 137.428 130.799C137.41 130.564 137.398 130.33 137.393 130.095L136.993 130.341C137.147 129.525 137.014 129.321 136.737 128.622C137.038 128.734 137.414 128.388 137.312 127.759C137.008 127.371 136.994 128.065 136.883 127.153C136.681 127.393 136.421 127.68 136.848 128.01C136.731 128.076 136.646 128.257 136.53 128.323C136.186 127.898 136.245 127.141 136.209 126.814C136.239 126.943 136.283 127.086 136.358 127.16C136.462 126.689 136.588 126.22 136.698 125.763C136.522 125.579 136.429 125.752 136.337 125.933C136.348 125.657 136.491 125.45 136.479 125.052C136.176 125.189 135.842 125.204 135.776 125.789C135.829 125.352 135.904 124.915 135.971 124.479C135.825 124.409 135.528 123.865 135.429 124.038C135.167 123.34 135.899 122.256 135.603 121.344C135.662 121.289 135.715 121.192 135.752 120.995C135.639 120.126 135.245 119.358 135.663 118.319L135.106 117.729C135.245 116.919 135.81 118.523 136.042 117.186C136.237 116.243 135.561 116.818 135.412 116.486C135.722 116.017 136.313 115.24 135.904 114.33C135.779 114.615 135.847 114.852 135.801 115.119C135.704 114.896 135.607 114.665 135.517 114.434C134.953 115.227 135.12 115.815 134.7 115.167C135.801 115.112 134.896 112.622 136.168 112.22C136.128 111.971 136.145 111.737 136.162 111.483C136.098 111.679 136.026 111.683 135.962 111.879C135.971 111.135 136.256 110.926 136.636 110.814C137.024 110.696 137.376 110.575 137.917 110.002C138.282 109.591 138.579 109.263 138.156 109.366C138.568 109.178 139.024 109.111 139.446 109.043C139.704 108.962 139.695 108.841 139.518 108.841C139.768 108.78 140.025 108.741 140.275 108.701C140.609 108.687 140.942 108.679 141.267 108.707L141.255 108.671C141.537 108.866 142.091 109.201 142.309 109.416C142.799 109.4 142.125 109.238 142.27 109.145C142.582 109.32 142.858 109.516 143.103 109.753C143.615 109.717 143.007 108.998 142.225 108.866C142.872 108.481 143.142 108.641 143.427 108.944C143.57 109.099 143.755 109.248 143.994 109.477C144.117 109.582 144.269 109.694 144.455 109.815C144.641 109.958 144.854 110.129 145.115 110.332C144.902 109.99 144.661 109.632 144.388 109.387C144.878 109.351 145.284 109.658 145.686 110.064C146.044 110.497 146.439 111.074 146.786 111.775C146.711 111.694 146.571 111.483 146.388 111.263C146.185 111.035 145.925 110.804 145.697 110.646C145.47 110.488 145.26 110.408 145.145 110.453C145.03 110.491 145.032 110.626 145.125 110.949C145.247 111.089 145.374 111.264 145.471 111.502C145.553 111.739 145.577 112.038 145.542 112.377C145.727 112.342 145.863 112.503 145.888 112.753C145.904 112.881 145.912 113.037 145.912 113.207C145.908 113.292 145.905 113.384 145.901 113.476C145.897 113.575 145.893 113.66 145.891 113.71L146.409 113.71C146.232 114.213 145.972 114.16 145.726 114.455C145.745 115.037 146.15 115.174 146.478 115.322C146.532 116.246 145.859 114.659 145.722 115.759C145.903 116.54 145.683 117.076 145.396 118.015C145.58 118.554 145.712 117.914 145.86 118.105L145.457 118.599C145.474 118.72 145.596 118.675 145.66 118.657C145.516 119.069 145.148 118.707 145.029 119.354C144.468 119.565 145.92 120.624 145.354 121.459C145.517 121.643 145.664 121.337 145.868 121.381C145.539 122.502 145.652 122.329 145.187 123.289C145.327 123.528 145.48 123.768 145.626 124.001C145.165 123.5 144.807 124.266 144.53 124.97C144.496 124.941 144.468 124.918 144.434 124.896C144.445 124.967 144.456 125.045 144.475 125.117C144.491 125.068 144.514 125.019 144.53 124.97C144.571 125 144.612 125.038 144.654 125.068C144.595 125.129 144.55 125.184 144.498 125.246C144.526 125.41 144.555 125.581 144.584 125.745C144.734 125.716 144.889 125.559 145.031 125.374L144.654 125.061C144.922 124.76 145.238 124.475 145.543 124.48C145.49 124.556 145.456 124.689 145.45 124.831C145.524 124.756 145.59 124.702 145.646 124.725C145.702 124.749 145.612 124.873 145.505 125.053L146.11 125.184L145.893 125.274C146.082 125.679 146.278 126.084 146.489 126.483C146.1 127.502 145.463 128.504 145.656 130.043C145.959 129.56 146.298 129.772 146.765 129.607C146.151 129.362 146.664 128.447 146.395 127.734C146.543 128.109 146.755 127.961 146.809 127.85C146.754 128.33 146.72 128.804 146.686 129.284C147.075 129.144 147.054 129.484 147.319 129.764C146.476 129.744 147.095 130.896 147.071 131.491C147.343 131.431 147.543 131.22 147.27 130.606C148.08 131.1 146.696 131.83 147.44 132.343C147.383 132.192 147.315 132.118 147.419 132.009C147.329 132.459 147.878 133.254 148.011 132.955L147.953 132.803C148.438 133.78 149.401 135.727 148.934 136.218C149.014 136.179 149.566 135.663 149.657 135.539C149.417 136.189 149.227 136.854 149.057 137.542C149.178 137.71 149.291 137.885 149.412 138.053C149.964 137.742 150.637 137.394 150.472 136.763C150.678 136.928 150.94 137.109 151.095 137.64C150.928 137.562 150.159 137.821 150.263 138.045C151.18 138.154 150.817 138.203 151.765 138.419C151.5 138.316 150.998 139.139 151.312 139.443C151.368 139.296 151.996 138.839 151.968 138.661C151.964 139.115 152.01 139.549 152.047 140.019C151.974 139.718 152.546 139.429 152.874 139.393C152.665 139.47 153.533 139.923 153.672 140.163L153.222 140.06C153.685 140.376 153.725 140.768 153.771 141.209C153.81 141.651 153.862 142.106 154.403 142.391C154.371 142.149 154.713 141.234 155.251 141.419C155.24 141.695 155.215 142.318 155.351 142.983C155.363 143.033 155.375 143.076 155.387 143.126C155.79 143.327 156.208 143.507 156.641 143.681C156.595 143.58 156.557 143.479 156.511 143.378C156.219 142.713 155.986 142.002 155.804 141.597C156.272 141.595 156.048 141.366 156.581 141.665C156.87 141.535 156.445 141.177 156.3 141.086C156.726 141.252 157.168 141.377 157.61 141.487C157.341 141.993 158.44 142.343 158.267 142.755C158.04 142.582 157.82 142.424 157.6 142.252L156.984 141.702C156.689 142.165 157.258 143.5 158.377 143.709C158.694 143.58 158.431 142.719 158.509 142.552C158.57 142.788 159.379 143.126 159.497 143.025L159.136 142.648C159.721 142.573 159.914 143.566 160.697 143.138C160.938 143.147 161.488 142.539 161.517 142.852C161.226 143.209 161.009 144.015 160.93 144.721C161.22 144.754 161.524 144.767 161.821 144.793L161.808 144.58L161.978 144.601L161.948 144.805C162.132 144.813 162.308 144.834 162.499 144.842C162.627 144.847 162.74 144.866 162.86 144.878C162.938 144.69 162.876 144.468 162.744 144.235C162.558 143.93 162.427 143.655 162.634 143.458C162.635 143.607 162.945 143.825 163.048 143.9C163.441 143.845 162.999 143.381 163.809 143.676C163.76 144.178 165.327 144.355 163.985 144.236C164.295 144.455 164.461 144.547 164.671 144.633C164.873 144.719 165.102 144.828 165.386 145.18C165.158 145.185 165.073 145.55 165.007 145.93C164.981 146.057 164.961 146.191 164.935 146.317C165.053 146.542 165.143 146.772 165.204 147.023C165.225 147.024 165.246 147.039 165.26 147.047C165.42 147.635 165.464 148.119 165.437 148.607C165.403 149.087 165.262 149.585 164.887 150.08L164.874 150.051ZM145.084 110.905C145.041 110.584 144.756 109.92 144.43 109.899C144.35 110.492 144.697 110.492 145.084 110.905ZM145.304 125.633C145.304 125.81 145.346 126.003 145.487 126.194C145.579 126.034 145.487 125.839 145.304 125.633Z" fill="#316EFF"/>
<path d="M113.389 128.27L113.588 128.441C113.589 128.406 113.653 128.408 113.648 128.373C114.108 128.732 112.831 128.396 112.909 128.74C112.968 128.87 113.105 128.982 113.249 128.938L112.929 129.116C112.926 129.194 113.116 129.223 113.12 129.145L112.928 129.492L112.964 129.493C112.786 129.5 112.494 129.545 112.372 129.561C112.494 129.701 112.493 129.552 112.618 129.614L112.309 129.729C112.557 129.895 112.865 129.815 112.871 129.667C113.857 130.189 112.57 129.754 113.027 130.361L113.232 130.213C113.772 130.54 113.506 130.622 113.782 130.987C113.617 130.853 113.027 130.205 112.688 130.333C112.741 130.42 112.751 130.52 112.502 130.552C112.865 130.695 112.734 130.774 112.658 130.906L113.139 131.089C112.93 131.187 112.693 131.07 112.445 131.075C112.416 131.265 112.77 131.456 113.06 131.639C113.012 131.949 112.561 131.186 112.33 131.467C112.416 131.775 112.13 131.842 111.729 131.953C111.811 132.183 112.021 132.071 112.123 132.196L111.693 132.136C111.691 132.171 111.802 132.225 111.858 132.249C111.658 132.283 111.4 132.01 111.19 132.115C110.675 131.874 111.705 132.874 111.022 132.753C111.116 132.885 111.307 132.893 111.465 133.02C110.938 133.083 111.051 133.102 110.43 133.006L110.585 133.381C110.359 133.024 109.866 132.94 109.465 132.853C109.445 132.831 109.432 132.809 109.411 132.787C109.397 132.8 109.389 132.821 109.381 132.835C109.409 132.836 109.437 132.845 109.465 132.853L109.533 132.941C109.47 132.91 109.414 132.886 109.359 132.863C109.359 132.863 109.351 132.877 109.344 132.883C109.321 132.911 109.299 132.938 109.276 132.966C109.4 133.063 109.553 133.147 109.727 133.218C109.674 133.124 109.6 133.036 109.532 132.948C109.825 133.073 110.145 133.221 110.386 133.408C110.323 133.391 110.266 133.389 110.216 133.401C110.292 133.433 110.362 133.471 110.403 133.508C110.444 133.545 110.332 133.505 110.199 133.471C110.342 133.605 110.479 133.738 110.608 133.878L110.414 133.757C110.406 133.962 110.375 134.18 110.338 134.399C109.634 134.278 108.895 133.794 108.427 133.796C108.733 134.106 108.801 134.371 109.06 134.8C108.911 134.284 109.544 134.749 109.726 134.466C109.642 134.611 109.812 134.774 109.903 134.813C109.655 134.803 109.408 134.779 109.175 134.748C109.409 135.091 109.24 135.07 109.189 135.288C108.879 134.531 108.59 135.015 108.299 134.847C108.381 135.106 108.534 135.346 108.761 135.171C108.747 135.511 108.556 135.333 108.379 135.134C108.203 134.935 108.056 134.724 108.002 135.012C108.059 135 108.075 134.951 108.141 135.075C107.935 134.896 107.662 135.168 107.788 135.372L107.853 135.361C107.664 135.473 107.328 135.531 107.054 135.47C106.773 135.394 106.561 135.209 106.561 134.861C106.55 134.953 106.563 135.691 106.586 135.826C106.43 135.288 106.331 134.767 106.297 134.226C106.24 134.224 106.184 134.215 106.127 134.205C105.96 134.822 105.761 135.537 105.955 135.808C105.839 135.874 105.674 135.938 105.506 135.697C105.608 135.63 105.886 134.904 105.818 134.838C105.411 135.424 105.578 135.147 105.086 135.574C105.231 135.487 105.438 134.588 105.311 134.576C105.277 134.709 104.936 135.412 104.96 135.519C104.938 135.199 104.959 134.852 104.993 134.542C105 134.726 104.66 135.237 104.447 135.413C104.566 135.29 104.114 135.243 104.07 135.092L104.336 135.018C103.853 134.864 104.729 133.723 104.467 133.542C104.361 133.7 103.776 134.485 103.532 134.39C103.661 134.182 103.985 133.699 104.323 133.245C104.346 133.211 104.368 133.183 104.391 133.156C104.324 133.061 104.264 132.959 104.204 132.85C104.152 132.912 104.093 132.973 104.041 133.042C103.675 133.481 103.4 133.973 103.295 134.288C103.026 134.284 103.025 134.461 102.872 134.214C102.614 134.281 102.673 134.582 102.727 134.662C102.527 134.519 102.364 134.335 102.194 134.151C102.652 133.872 102.396 133.393 102.814 133.205C102.739 133.499 102.705 133.796 102.678 134.121C102.904 133.974 103.158 133.651 103.34 133.361C103.522 133.071 103.646 132.806 103.538 132.667C103.304 132.672 102.703 133.165 102.536 133.25C102.677 133.107 102.687 132.689 102.564 132.734C102.491 132.802 102.43 132.905 102.362 133.009C102.071 132.841 102.902 132.45 102.343 132.42C102.289 132.361 101.612 132.454 101.907 132.331C102.278 132.275 103.076 132.01 103.738 131.768C103.713 131.696 103.688 131.617 103.655 131.545L103.46 131.629L103.448 131.586L103.642 131.516C103.617 131.444 103.591 131.372 103.566 131.3C103.121 131.423 102.666 131.802 102.289 131.836C102.426 131.785 102.58 131.657 102.624 131.616C102.477 131.581 102.198 131.797 102.206 131.613C102.718 131.414 102.056 131.302 102.619 131.389C102.72 131.187 102.461 131.262 102.427 131.069C102.662 131.036 103.068 130.819 103.346 130.617C103.327 130.553 103.308 130.488 103.29 130.424C103.276 130.423 103.247 130.422 103.24 130.429C103.11 130.14 102.824 130.036 102.736 129.741C102.601 129.75 102.414 129.643 102.197 129.755C102.285 129.688 102.451 129.602 102.448 129.51C101.947 129.44 102.425 129.736 101.837 129.726C102.145 129.639 102.212 129.38 102.375 129.209C102.867 129.144 102.534 129.485 102.371 129.67C102.6 129.615 102.823 129.525 103.033 129.427C102.96 129.127 102.895 128.819 102.844 128.505C102.595 128.332 102.711 127.762 102.361 127.486C102.455 127.426 102.55 127.352 102.665 127.321C102.618 126.915 102.592 126.502 102.581 126.091C102.517 126.095 102.466 126.114 102.396 126.111L102.572 125.949L102.573 125.934C102.481 125.938 102.358 125.996 102.275 125.951C102.388 125.941 102.489 125.917 102.568 125.877C102.572 125.793 102.561 125.707 102.565 125.622C102.557 125.622 102.551 125.614 102.537 125.607C102.537 125.607 102.551 125.607 102.558 125.601C102.561 125.53 102.564 125.452 102.567 125.381C102.553 125.381 102.539 125.373 102.533 125.358C102.562 125.345 102.562 125.331 102.57 125.317C102.609 123.497 102.994 121.719 103.886 120.181C103.947 120.07 104.029 119.974 104.097 119.871C103.866 119.627 103.629 119.369 103.346 119.166C103.689 119.287 103.558 119.026 103.505 118.762C103.437 118.497 103.449 118.221 103.929 118.439C103.872 118.266 103.707 118.309 103.607 118.156C103.913 118.318 104.027 118.294 104.087 118.048L104.018 118.003C104.527 117.683 104.523 117.265 105.098 116.728L105.218 117.095C105.329 116.979 105.312 116.857 105.338 116.745C105.731 117.201 104.954 116.956 105.387 117.463C105.29 117.069 105.549 116.959 105.781 116.848C106.026 116.752 106.257 116.648 106.239 116.208C106.49 116.147 106.264 116.655 106.507 116.594L106.517 116.347L106.64 116.635C106.785 116.563 106.833 116.26 106.82 116.054C106.784 116.081 106.694 116.013 106.645 116.004C106.842 115.686 107.31 116.032 107.377 115.949L107.123 116.102C107.495 116.195 107.885 116.183 108.28 116.256C108.667 116.328 109.043 116.485 109.249 116.827L109.143 116.979C109.435 117.466 109.578 116.933 109.966 117.331L109.968 117.282C109.973 117.488 110.031 117.639 110.156 117.701C110.166 117.453 110.603 117.513 110.594 117.222C110.803 117.841 110.649 117.615 110.449 118.33L110.711 118.163C110.601 118.435 110.504 118.545 110.602 118.754C110.658 118.437 111.049 118.567 111.144 118.167C111.577 118.156 111.593 118.447 111.585 118.653C111.583 118.865 111.563 119.013 112.044 118.877C111.458 119.505 111.405 118.723 111.325 118.94C111.046 119.006 110.914 119.441 111.053 119.51C111.134 119.62 112.121 119.228 112.295 119.674C112.275 119.631 112.333 119.605 112.313 119.562C112.579 119.65 112.169 119.974 112.555 120.068C112.112 120.319 112.658 120.327 112.047 120.515C112.067 120.381 112.08 120.24 112.086 120.098C111.997 120.364 111.329 120.755 111.726 120.927C111.848 120.883 112.007 120.804 112.083 120.694C112.292 120.78 111.984 120.86 112.189 120.875C112.491 120.774 112.533 120.776 112.524 120.641C112.51 120.484 112.467 120.312 112.666 120.122C112.969 120.184 112.337 120.711 112.98 120.433C112.173 120.903 113.115 120.587 112.525 120.974L112.885 120.847C112.84 120.902 112.686 121.03 112.712 121.095L113.155 120.837C112.802 121.141 113.618 121.111 113.445 121.359C113.348 120.965 112.976 121.39 112.661 121.299C112.296 121.887 113.702 121.32 113.656 121.914C113.689 121.823 113.368 121.689 113.22 121.839C113.323 121.921 113.496 122.028 113.708 122.051C113.706 122.433 113.309 122.077 113.11 122.274C113.591 122.301 112.959 122.488 112.839 122.667L113.224 122.598C113.543 122.966 112.442 122.843 112.805 123.155L113.31 122.921L113.209 123.136L113.639 123.026C113.345 123.291 113.435 123.337 113.583 123.534C113.307 123.523 112.884 123.648 112.898 123.825C113.142 123.921 113.256 123.72 113.232 123.981C113.469 123.898 113.764 123.804 113.391 123.725C113.512 123.702 113.628 123.643 113.75 123.612C114.029 123.723 113.857 123.957 113.853 124.049C113.833 124.013 113.813 123.969 113.757 123.953L113.244 124.379C113.391 124.427 113.506 124.375 113.622 124.316C113.583 124.399 113.41 124.463 113.385 124.576C113.699 124.525 114.025 124.517 114.16 124.338L113.832 124.736C113.973 124.756 114.221 124.915 114.33 124.863C114.52 125.076 113.72 125.391 113.971 125.663C113.907 125.675 113.849 125.708 113.804 125.763C113.864 126.02 114.244 126.277 113.793 126.556L114.344 126.777C114.193 127.005 113.654 126.48 113.405 126.86C113.196 127.113 113.873 127.013 114.024 127.133C113.722 127.248 113.127 127.401 113.539 127.723C113.656 127.657 113.588 127.576 113.641 127.5L113.921 127.746C114.474 127.584 114.32 127.365 114.735 127.623C113.648 127.493 114.49 128.414 113.412 128.242L113.389 128.27ZM112.674 130.325C112.767 130.301 113.045 130.277 112.844 130.162C112.401 130.08 112.587 130.194 112.674 130.325ZM109.766 133.652C109.892 133.7 109.896 133.601 109.831 133.449C109.766 133.475 109.743 133.531 109.766 133.652Z" fill="#316EFF"/>
<path d="M191.936 132.943L192.142 133.108C192.144 133.072 192.2 133.075 192.195 133.032C192.671 133.363 191.384 133.098 191.484 133.435C191.549 133.559 191.694 133.664 191.831 133.613L191.518 133.805C191.522 133.877 191.713 133.898 191.709 133.827L191.545 134.182L191.581 134.184C191.402 134.205 191.116 134.264 190.995 134.295C191.124 134.42 191.116 134.278 191.249 134.326L190.938 134.462C191.194 134.615 191.503 134.514 191.495 134.358C192.512 134.803 191.186 134.458 191.702 135.033L191.886 134.87C192.456 135.148 192.203 135.252 192.509 135.59C192.336 135.477 191.687 134.883 191.369 135.033C191.436 135.114 191.446 135.213 191.203 135.267C191.574 135.375 191.45 135.469 191.388 135.601L191.886 135.742C191.696 135.862 191.445 135.766 191.196 135.792C191.188 135.983 191.557 136.14 191.863 136.287C191.843 136.598 191.319 135.889 191.116 136.186C191.217 136.48 190.972 136.577 190.576 136.724C190.681 136.941 190.884 136.814 190.994 136.918L190.555 136.9C190.553 136.942 190.672 136.976 190.735 137C190.541 137.055 190.253 136.817 190.05 136.943C189.511 136.765 190.659 137.635 189.966 137.592C190.075 137.703 190.267 137.696 190.44 137.796C189.917 137.923 190.045 137.928 189.414 137.917C189.48 138.033 189.554 138.142 189.604 138.293C189.384 137.965 188.937 137.975 188.57 137.939L188.421 137.933C188.421 137.933 188.38 137.889 188.36 137.867C188.352 137.88 188.344 137.901 188.337 137.915C188.365 137.916 188.393 137.918 188.421 137.926L188.496 138.014C188.433 137.99 188.377 137.967 188.321 137.95C188.321 137.957 188.313 137.971 188.306 137.978C188.29 138.013 188.268 138.033 188.252 138.068C188.376 138.158 188.536 138.235 188.711 138.285C188.651 138.198 188.577 138.102 188.503 138.014C188.663 138.07 188.831 138.127 188.999 138.191C189.138 138.246 189.278 138.308 189.395 138.384C189.374 138.383 189.353 138.382 189.331 138.381C189.289 138.38 189.246 138.392 189.217 138.412C189.301 138.437 189.371 138.461 189.412 138.498C189.453 138.535 189.333 138.516 189.192 138.489C189.343 138.623 189.479 138.749 189.623 138.883L189.422 138.775C189.42 138.988 189.418 139.215 189.402 139.441C188.695 139.369 187.933 138.934 187.451 138.943C187.779 139.24 187.853 139.505 188.127 139.92C187.963 139.417 188.619 139.848 188.794 139.558C188.717 139.711 188.895 139.86 188.986 139.899C188.723 139.902 188.482 139.899 188.243 139.868C188.484 140.197 188.315 140.183 188.277 140.402C187.946 139.665 187.657 140.149 187.351 139.988C187.447 140.24 187.608 140.473 187.835 140.305C187.835 140.639 187.622 140.467 187.446 140.275C187.255 140.083 187.094 139.871 187.054 140.153C187.118 140.141 187.134 140.092 187.207 140.216C186.988 140.03 186.715 140.302 186.855 140.506L186.919 140.495C186.73 140.608 186.381 140.65 186.093 140.582C185.799 140.499 185.58 140.312 185.566 139.957C185.562 140.049 185.589 140.788 185.618 140.924C185.435 140.377 185.33 139.841 185.274 139.3C185.217 139.298 185.161 139.281 185.098 139.272C184.952 139.89 184.766 140.612 184.975 140.89C184.858 140.957 184.693 141.021 184.519 140.773C184.621 140.706 184.87 139.979 184.802 139.905C184.41 140.492 184.57 140.214 184.084 140.641C184.23 140.555 184.409 139.641 184.282 139.628C184.255 139.762 183.928 140.472 183.952 140.579C183.923 140.252 183.923 139.904 183.95 139.586C183.957 139.771 183.631 140.29 183.411 140.465C183.536 140.342 183.049 140.287 182.992 140.122L183.272 140.055C182.741 139.863 183.651 138.759 183.389 138.571C183.277 138.715 182.65 139.469 182.379 139.338C182.515 139.138 182.867 138.67 183.246 138.267C183.268 138.24 183.297 138.213 183.327 138.185C183.26 138.083 183.2 137.982 183.149 137.866C183.082 137.92 183.024 137.967 182.958 138.021C182.545 138.395 182.235 138.871 182.123 139.186C181.828 139.131 181.827 139.322 181.662 139.025C181.385 139.042 181.434 139.384 181.494 139.486C181.275 139.293 181.108 139.045 180.926 138.803C181.192 138.729 181.217 138.468 181.313 138.365C181.396 138.241 181.472 138.117 181.688 138.047C181.633 138.166 181.566 138.255 181.518 138.388C181.49 138.55 181.462 138.712 181.448 138.889C181.693 138.778 181.975 138.485 182.191 138.224C182.394 137.949 182.578 137.772 182.471 137.626C182.243 137.631 181.589 138.022 181.417 138.079C181.577 137.972 181.646 137.67 181.511 137.686L181.289 137.911C181.038 137.815 181.863 137.395 181.304 137.365C181.25 137.306 180.573 137.392 180.869 137.27C181.24 137.214 182.037 136.97 182.713 136.735C182.687 136.663 182.662 136.584 182.63 136.505L182.435 136.582L182.423 136.539L182.617 136.476C182.591 136.404 182.566 136.332 182.541 136.26C182.096 136.384 181.634 136.755 181.257 136.789C181.394 136.738 181.548 136.617 181.592 136.569C181.452 136.535 181.166 136.75 181.181 136.566C181.692 136.367 181.031 136.255 181.594 136.342C181.695 136.14 181.429 136.215 181.395 136.022C181.63 135.989 182.036 135.764 182.314 135.563C182.295 135.499 182.277 135.434 182.251 135.369C182.237 135.369 182.208 135.374 182.201 135.374C182.064 135.078 181.763 134.98 181.683 134.687C181.548 134.695 181.354 134.595 181.143 134.721C181.224 134.654 181.398 134.561 181.38 134.468C180.872 134.412 181.371 134.695 180.775 134.706C181.077 134.612 181.137 134.352 181.293 134.167C181.779 134.081 181.466 134.444 181.31 134.629C181.539 134.567 181.756 134.47 181.959 134.357C181.872 134.049 181.8 133.741 181.721 133.426C181.465 133.267 181.546 132.674 181.173 132.418C181.268 132.351 181.357 132.27 181.465 132.231C181.389 131.817 181.328 131.403 181.281 130.99C181.224 131.002 181.174 131.021 181.103 131.025L181.266 130.848L181.267 130.834C181.174 130.851 181.058 130.91 180.974 130.878C181.081 130.861 181.189 130.823 181.261 130.784C181.251 130.698 181.24 130.613 181.23 130.52C181.223 130.52 181.216 130.512 181.202 130.512C181.202 130.512 181.216 130.505 181.224 130.499C181.22 130.42 181.215 130.349 181.212 130.271C181.197 130.271 181.184 130.263 181.177 130.249C181.206 130.228 181.207 130.214 181.207 130.2C181.073 128.273 181.285 126.396 182.155 124.893C182.223 124.782 182.305 124.686 182.38 124.583C182.149 124.332 181.912 124.068 181.637 123.851C181.98 123.971 181.863 123.711 181.825 123.426C181.779 123.155 181.819 122.865 182.285 123.104C182.242 122.925 182.063 122.968 181.978 122.801C182.276 122.976 182.397 122.96 182.492 122.709L182.423 122.656C182.982 122.36 183.041 121.944 183.692 121.46L183.769 121.839C183.9 121.738 183.891 121.617 183.939 121.499C184.28 121.995 183.527 121.673 183.895 122.22C183.863 121.956 183.967 121.833 184.113 121.747C184.149 121.727 184.185 121.714 184.228 121.695L184.279 121.676C184.279 121.676 184.344 121.65 184.366 121.623C184.418 121.554 184.424 121.419 184.308 121.138C184.467 121.059 184.403 121.574 184.62 121.477L184.587 121.235L184.768 121.49C184.893 121.382 184.878 121.069 184.815 120.875C184.778 120.909 184.673 120.869 184.624 120.867C184.752 120.511 185.302 120.746 185.356 120.642C185.275 120.71 185.202 120.777 185.128 120.852C185.524 120.862 185.926 120.75 186.365 120.761C186.798 120.758 187.262 120.862 187.559 121.207L187.461 121.366C187.678 121.595 187.778 121.592 187.92 121.569C188.056 121.547 188.221 121.511 188.445 121.74L188.447 121.69C188.467 121.904 188.531 122.069 188.67 122.146C188.68 121.884 189.164 122.01 189.149 121.705C189.276 122.057 189.272 122.163 189.232 122.275C189.184 122.387 189.102 122.504 188.953 122.852L189.235 122.722C189.096 122.986 189 123.074 189.054 123.317C189.159 123.003 189.527 123.209 189.677 122.818C190.128 122.893 190.094 123.197 190.051 123.401C190.02 123.626 189.966 123.738 190.444 123.651C189.764 124.169 189.877 123.472 189.75 123.637C189.466 123.66 189.265 124.056 189.382 124.139C189.448 124.255 190.446 123.949 190.567 124.294C190.547 124.265 190.605 124.239 190.592 124.203C190.851 124.284 190.376 124.456 190.746 124.422C190.317 124.688 190.879 124.633 190.301 124.914C190.292 124.779 190.277 124.637 190.3 124.574C190.277 124.622 190.218 124.677 190.158 124.752C190.105 124.835 190.038 124.932 189.985 125.015C189.885 125.188 189.844 125.328 190.067 125.415C190.176 125.349 190.303 125.191 190.364 125.094C190.576 125.117 190.32 125.319 190.538 125.349C191.13 125.097 190.508 124.873 190.837 124.454C191.142 124.452 190.606 125.068 191.189 124.681C190.446 125.175 191.465 125.061 190.912 125.556L191.272 125.422C191.227 125.484 191.087 125.627 191.112 125.706L191.542 125.419C191.202 125.766 192.03 125.786 191.855 126.077C191.762 125.591 191.381 126.071 191.067 125.938C190.884 126.264 191.138 126.281 191.441 126.322C191.739 126.334 192.103 126.448 192.042 126.715C192.092 126.696 191.77 126.435 191.614 126.613C191.714 126.752 191.862 126.786 192.068 126.766C192.014 126.891 191.676 126.821 191.453 126.897C191.935 126.917 191.302 127.118 191.189 127.297L191.568 127.221C191.893 127.588 190.798 127.48 191.155 127.785L191.661 127.536L191.553 127.752L191.983 127.635C191.696 127.907 191.786 127.953 191.941 128.151C191.658 128.139 191.248 128.278 191.255 128.456C191.499 128.551 191.614 128.343 191.589 128.604C191.826 128.522 192.121 128.413 191.749 128.341C191.87 128.311 191.986 128.252 192.108 128.221C192.387 128.325 192.207 128.566 192.218 128.665C192.198 128.629 192.171 128.585 192.115 128.569L191.622 129.01C191.776 129.058 191.885 128.999 191.994 128.94C191.962 129.023 191.782 129.094 191.756 129.206C192.07 129.148 192.397 129.133 192.532 128.955L192.21 129.36C192.352 129.373 192.6 129.532 192.716 129.473C192.921 129.68 192.127 130.016 192.378 130.288C192.314 130.3 192.256 130.333 192.218 130.395C192.292 130.646 192.672 130.896 192.235 131.19L192.794 131.39C192.649 131.625 192.096 131.121 191.853 131.508C191.651 131.776 192.33 131.641 192.481 131.753C192.185 131.883 191.589 132.064 192.017 132.365C192.133 132.292 192.058 132.218 192.111 132.142L192.399 132.374C192.946 132.183 192.777 131.978 193.2 132.215C192.104 132.135 192.997 133.008 191.903 132.885L191.936 132.943ZM191.362 135.019C191.456 134.987 191.727 134.941 191.511 134.84C191.066 134.794 191.261 134.887 191.362 135.019ZM188.807 138.729C188.933 138.769 188.923 138.662 188.851 138.511C188.793 138.544 188.769 138.607 188.807 138.729Z" fill="#316EFF"/>
<path d="M181.025 134.121C180.895 134.172 180.712 134.485 180.679 134.249C180.809 134.197 180.875 133.98 181.025 134.121Z" fill="#316EFF"/>
<path d="M193.191 131.711C193.21 131.79 193.093 131.877 193.111 131.956C193.21 131.79 192.606 131.659 193.191 131.711Z" fill="#316EFF"/>
<path d="M128.208 250.127C128.46 250.556 128.735 250.936 129.018 251.295C129.429 251.297 129.848 251.279 130.086 251.012C130.047 251.45 130.508 251.611 130.987 251.708C131.218 251.775 131.45 251.827 131.643 251.941C131.83 252.069 131.978 252.245 132.078 252.575C132.335 252.536 132.041 252.269 132.23 252.17C132.262 252.583 132.517 252.778 133.067 252.836L133.036 252.742C133.726 253.026 134.285 253.07 134.853 253.036C135.429 252.989 136.022 252.893 136.874 252.694L136.78 253.087C137.159 253.01 137.221 252.864 137.389 252.75C137.648 253.009 137.377 253.055 137.105 253.107C136.834 253.146 136.548 253.191 136.784 253.491C137.013 253.089 137.683 253.01 138.342 252.853C139 252.703 139.633 252.487 139.674 252.014C140.248 251.839 139.633 252.495 140.215 252.306L140.297 252.025L140.543 252.269C140.911 252.093 141.004 251.735 140.948 251.541C140.868 251.602 140.67 251.587 140.57 251.604C140.956 251.18 141.97 251.172 142.104 251.014L141.614 251.377C143.276 250.956 144.993 249.715 146.678 249.266L146.669 249.485C147.94 249.098 147.442 248.787 148.724 248.137L148.66 248.135C149 248.127 149.368 247.986 149.676 247.744C149.263 247.776 150.003 247.02 149.475 247.097C150.152 246.841 150.331 246.799 150.493 246.82C150.571 246.83 150.64 246.861 150.767 246.881C150.831 246.89 150.908 246.908 151 246.911C151.106 246.916 151.255 246.908 151.419 246.9C151.438 246.766 151.472 246.633 151.506 246.5C152.007 246.57 152.075 246.636 152.91 246.507C152.542 246.471 152.641 246.326 152.746 246.175C152.844 246.023 152.958 245.857 152.478 245.802C153.424 245.21 154.35 245.439 154.955 245.726C155.595 246.022 155.966 246.328 156.719 246.295C156.874 247.003 156.42 246.672 155.954 246.455C155.481 246.209 154.957 246.024 155.184 246.189C154.926 246.264 155.082 246.44 155.314 246.67C155.553 246.885 155.868 247.153 156.102 247.326C156.219 247.416 156.359 247.464 156.534 247.521C156.716 247.571 156.919 247.629 157.142 247.744C157.378 247.853 157.591 248.032 157.8 248.296C157.908 248.428 157.972 248.579 158.05 248.76C158.082 248.846 158.114 248.932 158.146 249.026C158.165 249.076 158.184 249.127 158.196 249.184C158.171 249.091 158.229 249.079 158.204 248.986C158.354 249.134 158.326 249.303 158.318 249.501C158.314 249.593 158.31 249.699 158.341 249.786C158.388 249.865 158.456 249.939 158.574 249.994C158.389 250.192 158.447 250.322 158.485 250.43C158.538 250.517 158.563 250.603 158.321 250.806C158.175 250.566 158.146 250.238 158.057 249.972C158.097 250.215 157.941 250.563 157.977 250.891C157.992 251.055 158.034 251.234 158.127 251.4C158.226 251.56 158.406 251.674 158.615 251.768C158.649 251.62 158.591 251.32 158.548 251.155C158.852 251.168 158.765 251.568 159.085 251.553C159.23 251.297 159.11 251.107 158.926 250.916C158.823 250.833 158.773 250.675 158.707 250.552C158.648 250.429 158.626 250.279 158.697 250.112C158.843 250.168 158.857 250.367 158.893 250.524C158.929 250.682 158.961 250.768 159.178 250.472C158.9 250.872 159.109 250.966 159.267 251.085C159.364 251.132 159.484 251.151 159.566 251.225C159.607 251.262 159.647 251.314 159.68 251.386C159.72 251.444 159.76 251.517 159.791 251.624L159.912 251.261C159.959 251.334 160.04 251.599 160.209 251.62C160.152 251.448 160.132 251.241 160.126 251.057C160.199 251.35 160.471 251.277 160.658 251.213C160.874 251.137 161.079 250.989 161.272 251.125C160.424 251.048 161.048 251.577 160.612 251.814C160.904 251.961 161.123 251.991 161.274 251.926C161.434 251.848 161.524 251.71 161.616 251.557C161.798 251.26 161.94 250.918 162.609 250.853C162.423 250.874 161.984 251.211 162.298 251.344C162.55 251.241 162.86 250.956 162.947 250.74C163.844 250.479 162.943 251.172 163.401 251.24C163.545 250.679 163.925 251.255 164.418 251.161L164.241 250.814C164.688 250.449 164.833 250.547 165.005 250.689C165.156 250.809 165.341 250.972 165.672 250.504C165.44 250.452 165.229 250.415 164.998 250.334C165.178 250.278 165.33 250.192 165.503 250.128L165.146 249.844C165.473 249.808 165.654 249.73 165.772 249.607C165.905 249.485 165.996 249.347 166.142 249.062C166.251 249.35 166.728 249.476 167.1 249.038C167.14 248.586 166.684 248.985 167.191 248.382C166.886 248.384 166.54 248.355 166.619 248.834C166.501 248.779 166.323 248.807 166.204 248.753C166.251 248.301 166.74 247.959 166.891 247.732C166.852 247.829 166.797 247.948 166.801 248.026C167.15 247.827 167.506 247.608 167.849 247.36C167.809 247.131 167.636 247.202 167.47 247.266C167.612 247.088 167.849 247.033 168.037 246.75C167.714 246.688 167.43 246.52 167.083 246.853C167.348 246.616 167.614 246.357 167.866 246.077C167.772 245.953 167.744 245.434 167.578 245.512C167.616 244.918 168.681 244.373 168.66 243.493C168.732 243.468 168.812 243.407 168.897 243.248C169.021 242.466 168.796 241.726 169.391 240.871L168.928 240.243C169.177 239.522 169.51 241.089 169.928 239.886C170.239 239.027 169.497 239.486 169.391 239.148C169.74 238.758 170.421 238.049 170.068 237.155C169.929 237.419 169.984 237.641 169.91 237.9L169.675 237.224C169.065 237.93 169.17 238.487 168.806 237.848C169.358 237.871 169.461 237.265 169.564 236.645C169.592 236.491 169.619 236.336 169.647 236.188C169.671 236.104 169.689 236.027 169.713 235.95C169.746 235.83 169.786 235.726 169.826 235.621C169.991 235.216 170.213 234.984 170.473 235.045C170.483 234.804 170.507 234.564 170.539 234.31C170.46 234.498 170.389 234.502 170.317 234.698C170.356 233.934 170.695 233.778 171.075 233.687C171.261 233.638 171.461 233.596 171.671 233.484C171.895 233.394 172.135 233.248 172.416 232.955C172.828 232.589 173.126 232.246 172.711 232.336C173.136 232.169 173.585 232.13 173.998 232.083C174.335 231.991 174.214 231.816 173.862 231.922C174.177 231.864 174.491 231.806 174.811 231.783C175.13 231.789 175.443 231.767 175.76 231.815L175.747 231.779C175.878 231.877 176.085 232.013 176.278 232.141C176.471 232.277 176.656 232.44 176.773 232.53C177.256 232.514 176.589 232.352 176.734 232.259C177.04 232.421 177.321 232.652 177.573 232.896C177.823 232.871 177.815 232.7 177.625 232.494C177.53 232.391 177.393 232.272 177.227 232.173C177.06 232.095 176.879 232.024 176.696 231.981C177.344 231.582 177.605 231.777 177.912 232.08C178.069 232.222 178.238 232.413 178.505 232.665C178.779 232.889 179.121 233.193 179.641 233.661C179.436 233.306 179.218 232.907 178.925 232.604C179.949 232.71 180.626 233.851 181.175 235.319C181.034 235.136 180.687 234.42 180.192 234.053C179.732 233.679 179.415 233.638 179.587 234.29C179.844 234.591 180.008 235.094 179.873 235.777C180.065 235.763 180.144 235.915 180.162 236.178C180.18 236.434 180.134 236.851 180.084 237.047L180.6 237.068C180.38 237.605 180.128 237.531 179.854 237.818C179.828 238.434 180.204 238.612 180.515 238.802C180.453 239.799 179.979 238.036 179.713 239.181C179.799 240.021 179.486 240.568 179.023 241.485C179.091 242.083 179.351 241.442 179.462 241.673L178.962 242.106C178.95 242.234 179.078 242.218 179.149 242.206C178.914 242.601 178.634 242.143 178.374 242.784C177.798 242.839 178.892 244.33 178.064 245.005C178.153 245.243 178.398 244.983 178.57 245.097C177.848 246.124 178.03 245.996 177.198 246.749L177.276 247.632C177.077 246.936 176.443 247.541 175.849 248.006C175.83 247.963 175.817 247.934 175.804 247.898C175.78 247.968 175.749 248.037 175.725 248.107C175.768 248.074 175.805 248.047 175.849 248.006C175.868 248.056 175.888 248.1 175.907 248.15C175.828 248.175 175.756 248.201 175.677 248.226C175.621 248.379 175.565 248.54 175.502 248.694C175.649 248.749 175.849 248.708 176.072 248.618C176.022 248.46 175.965 248.301 175.907 248.15C176.288 248.017 176.704 247.906 176.974 248.059C176.895 248.105 176.798 248.215 176.722 248.339C176.83 248.301 176.915 248.291 176.949 248.334C176.989 248.386 176.838 248.45 176.656 248.571L177.106 249.007L176.873 248.984C176.825 249.471 176.748 249.957 176.65 250.442C176.175 250.799 175.66 251.075 175.108 251.4C174.839 251.566 174.576 251.747 174.319 251.956C174.055 252.165 173.777 252.395 173.523 252.69C174.087 252.599 174.149 252.992 174.578 253.257C174.478 252.927 174.693 252.695 174.987 252.445C175.253 252.179 175.591 251.895 175.749 251.49C175.591 251.902 175.845 251.934 175.975 251.875C175.591 252.249 175.221 252.624 174.796 252.954C175.164 253.14 174.877 253.39 174.803 253.827C174.548 253.469 174.293 253.643 174.012 253.922C173.717 254.194 173.41 254.599 173.127 254.765C173.31 254.971 173.619 255.026 174.036 254.384C173.979 255.431 172.656 254.654 172.491 255.561C172.624 255.432 172.657 255.334 172.811 255.376C172.337 255.527 171.762 256.411 172.088 256.403L172.221 256.274C172.034 256.528 171.733 256.771 171.417 257.042C171.094 257.298 170.763 257.597 170.394 257.773C169.67 258.147 169.022 258.383 168.757 258.11C168.789 258.189 169.326 258.75 169.458 258.819C168.736 258.62 168.065 258.387 167.416 258.126C167.3 258.185 167.198 258.252 167.083 258.304C166.996 258.343 166.91 258.375 166.823 258.414C166.996 259.031 167.172 259.768 167.927 259.679C167.705 259.896 167.363 260.123 166.694 260.181C166.864 260.018 166.848 259.195 166.583 259.248C166.114 260.136 166.23 259.744 165.48 260.578C165.743 260.369 165.166 259.58 164.736 259.697C164.837 259.815 164.897 260.597 165.094 260.648C164.62 260.444 164.182 260.242 163.753 259.976C164.06 260.102 163.928 260.727 163.675 261.022C163.728 260.925 163.464 260.964 163.143 261.021C162.823 261.051 162.438 261.099 162.276 261.057L162.782 260.822C162.097 260.936 161.749 260.61 161.444 260.257C161.132 259.918 160.855 259.567 160.241 259.506C160.36 259.709 160.497 260.701 159.787 260.728C159.677 260.476 159.411 259.876 159.125 259.241C159.105 259.197 159.086 259.154 159.066 259.118C158.616 259.014 158.182 258.883 157.756 258.731C157.801 258.832 157.84 258.933 157.892 259.034C158.234 259.686 158.696 260.365 159.085 260.721C158.536 260.812 158.867 261.024 158.112 260.78C157.772 260.937 158.431 261.283 158.671 261.328C158.353 261.301 158.044 261.224 157.727 261.162C157.411 261.099 157.094 261.036 156.787 260.932C156.917 260.689 156.63 260.436 156.349 260.191C156.069 259.938 155.803 259.665 155.938 259.486C156.191 259.723 156.451 259.947 156.727 260.142C157.002 260.345 157.276 260.576 157.581 260.751C157.705 260.501 157.531 260.069 157.238 259.61C157.091 259.384 156.901 259.178 156.682 258.985C156.47 258.785 156.229 258.612 155.95 258.501C155.565 258.549 155.705 259.455 155.607 259.614C155.523 259.398 154.722 258.699 154.55 258.749L154.869 259.279C154.112 259.071 154.288 258.057 153.301 257.925C153.176 257.842 152.894 257.823 152.661 257.785C152.598 257.775 152.542 257.759 152.547 257.795C152.546 257.823 152.504 257.814 152.497 257.814C152.469 257.813 152.469 257.791 152.515 257.722C152.639 257.621 152.83 257.48 153.015 257.282C153.248 257.128 153.497 256.926 153.719 256.715C153.807 256.627 153.889 256.545 153.963 256.456C153.745 256.255 153.534 256.041 153.33 255.82C153.306 255.897 153.274 255.974 153.25 256.044L153.142 255.919L153.242 255.724C153.038 255.496 152.842 255.261 152.661 255.02C152.581 255.229 152.596 255.57 152.59 255.889C152.587 256.314 152.536 256.674 152.403 256.817C152.452 256.656 152.423 256.329 152.4 256.2C152.265 256.209 152.306 256.764 152.141 256.466C152.141 256.466 152.134 256.452 152.127 256.444C152.173 256.014 151.995 256.205 151.901 256.265C151.813 256.339 151.768 256.401 152.057 255.903C151.715 255.945 151.687 256.285 151.31 256.503C151.333 256.277 151.188 256.009 150.903 255.87C150.813 255.823 150.701 255.79 150.588 255.772C150.377 255.905 150.166 256.038 149.948 256.164C149.947 256.185 149.946 256.213 149.945 256.227C148.94 256.888 148.499 257.438 147.492 257.964C147.464 258.133 147.044 258.52 147.358 258.632C147.167 258.624 146.945 258.515 146.627 258.658C146.214 259.386 147.369 258.377 147.147 259.126C146.966 258.864 146.126 259.127 145.579 259.14C145.522 258.627 146.594 258.586 147.136 258.53C147.031 258.32 146.825 258.156 146.56 258.032C145.476 258.555 144.372 259.02 143.236 259.399C142.93 259.592 142.383 259.789 141.76 259.955C140.941 260.198 139.998 260.373 139.342 260.651C139.154 260.565 138.895 260.491 138.814 260.381C138.294 260.438 137.775 260.48 137.249 260.494C136.22 260.523 135.209 260.46 134.215 260.32C134.22 260.377 134.217 260.441 134.193 260.504C134.005 260.425 133.825 260.326 133.637 260.226C133.616 260.225 133.588 260.224 133.567 260.216C133.563 260.308 133.734 260.471 133.555 260.513C133.559 260.4 133.486 260.276 133.37 260.179C133.053 260.117 132.737 260.047 132.421 259.97C132.4 259.97 132.386 259.969 132.364 259.982C132.35 259.975 132.351 259.961 132.337 259.953C132.077 259.886 131.811 259.811 131.559 259.73C131.531 259.728 131.488 259.727 131.439 259.725C131.398 259.68 131.342 259.664 131.293 259.641C127.858 258.508 124.879 256.273 122.936 253.003C120.939 249.645 126.294 246.83 128.284 250.166L128.208 250.127ZM179.546 234.253C179.503 234.095 179.493 233.811 179.374 233.594C179.263 233.369 179.115 233.179 178.952 233.165C178.85 233.757 179.203 233.785 179.546 234.253ZM176.148 249.018C176.057 249.177 175.992 249.373 175.989 249.621C176.169 249.543 176.2 249.311 176.148 249.018Z" fill="#316EFF"/>
<path d="M155.187 49.5474L155.201 49.5694C155.095 49.5365 155.116 49.5445 155.187 49.5474Z" fill="#316EFF"/>
<path d="M104.207 43.0023C104.341 42.4831 104.557 41.8822 104.643 41.3469C104.349 42.4764 104.741 43.2794 104.207 43.0023Z" fill="#316EFF"/>
<path d="M191.456 54.7107C192.086 54.9137 191.598 55.3971 191.751 55.999L192.098 55.8288C193.046 57.1084 191.565 56.5657 192.461 57.6943L192.685 56.9164L192.882 57.6405L193.215 57.3067C193.271 58.1741 193.455 58.3659 193.903 59.0153C193.579 58.9666 193.313 59.4095 193.599 60.0451C194.011 60.3739 193.821 59.65 194.195 60.5587C194.321 60.259 194.491 59.9044 193.976 59.6706C194.072 59.5752 194.102 59.3708 194.198 59.2755C194.659 59.6205 194.811 60.4137 194.961 60.7319C194.887 60.6154 194.794 60.4769 194.711 60.4238C194.761 60.9293 194.776 61.4404 194.811 61.9524C195.032 62.0961 195.069 61.8849 195.106 61.6737C195.187 61.9536 195.106 62.2126 195.245 62.6153C195.489 62.3842 195.798 62.2763 195.688 61.6621L195.922 63.0543C196.084 63.0821 196.554 63.541 196.584 63.3366C197.055 63.9656 196.789 65.2735 197.378 66.113C197.34 66.1823 197.328 66.3024 197.362 66.5165C197.781 67.3632 198.457 68.0006 198.472 69.1924L199.236 69.5781C199.427 70.4439 198.266 69.028 198.575 70.4729C198.76 71.5014 199.163 70.6671 199.435 70.9476C199.349 71.483 199.149 72.3894 199.694 73.1066C199.593 73.145 199.466 73.1469 199.31 73.1405C198.17 73.0939 198.091 73.2892 198.638 74.4885C199.323 74.3747 200.016 74.2613 200.708 74.1407C200.824 74.5992 200.829 74.9965 200.461 75.1658L200.828 75.5424C200.777 75.4127 200.835 75.3725 200.776 75.2496C201.563 75.9624 200.243 76.1566 200.759 77.2341C200.971 77.6044 201.21 77.8269 201.244 77.5163L201.276 78.4748C201.379 78.7272 201.54 78.6061 201.436 78.3537C201.552 78.8123 201.683 79.2643 201.778 79.7219L201.807 79.7019C201.698 79.9456 201.57 80.4579 201.525 80.7042C201.775 81.0052 201.583 80.501 201.744 80.5501L201.71 81.3712C202.069 81.5986 202.155 80.9002 201.963 80.3889C202.082 80.4292 202.173 80.4613 202.249 80.4999C202.199 80.8524 202.277 81.0257 202.514 81.1417C202.473 81.4308 202.465 81.8204 202.936 82.4211L202.861 81.6735C203.593 81.9587 203.54 82.5805 204.142 83.2787C203.892 83.1409 202.729 81.9305 202.707 82.823C202.855 83.0275 202.977 83.3233 202.893 83.8232C203.08 83.7741 203.182 83.8634 203.253 84.0294C203.329 84.2594 203.375 84.6867 203.422 85.114L203.929 85.0142C203.878 85.5652 203.74 85.8289 203.619 86.0013C203.499 86.1736 203.352 86.2881 203.15 86.5564C203.132 86.6549 203.114 86.7393 203.096 86.8307C202.785 86.9952 202.473 87.1527 202.169 87.3175C201.574 87.6476 200.984 88.0347 200.715 88.7044C200.668 88.8301 200.816 89.0276 200.885 89.236C201.14 89.0763 201.407 88.9525 201.627 88.7701C201.781 88.6417 201.933 88.584 202.09 88.5479C202.031 88.6023 201.965 88.6563 201.891 88.7312C201.401 89.2784 200.842 89.5959 200.24 89.7414C199.933 89.7998 199.626 89.8652 199.286 89.8442C199.123 89.8376 198.946 89.8303 198.769 89.8231C198.593 89.7946 198.404 89.7514 198.214 89.7082C197.287 89.8334 198.356 90.0402 198.018 90.1681C197.74 90.0221 197.472 89.8126 197.239 89.6258C197.042 89.5964 197.072 89.7253 197.083 89.7966C196.757 89.6131 196.791 89.4727 196.776 89.3374C196.982 89.3104 197.21 89.1282 197.607 88.7829C196.709 88.0229 195.721 87.5642 194.611 87.4904C194.536 87.4023 194.454 87.328 194.394 87.2334C194.23 86.9218 194.111 86.527 194.194 86.2397C193.988 86.0682 193.917 86.4269 193.705 86.4111C193.771 85.1234 193.706 85.3264 193.972 84.2028L193.406 83.4777C193.953 83.9751 194.167 83.0692 194.328 82.2746C194.369 82.2976 194.397 82.32 194.431 82.3426C194.406 82.2636 194.388 82.1849 194.363 82.1059C194.353 82.1622 194.337 82.2112 194.328 82.2746C194.286 82.2445 194.238 82.2142 194.19 82.1839C194.235 82.1077 194.281 82.0387 194.319 81.9694C194.262 81.7898 194.22 81.6108 194.164 81.4312C194.013 81.4747 193.884 81.668 193.769 81.8831L194.19 82.1839C193.969 82.5435 193.707 82.8944 193.401 82.9244C193.44 82.8339 193.446 82.6852 193.431 82.5286C193.37 82.6254 193.311 82.6868 193.248 82.67C193.185 82.6462 193.255 82.5001 193.334 82.2907L192.713 82.2157L192.917 82.0893C192.666 81.6536 192.385 81.2309 192.126 80.8019C192.344 79.6268 192.88 78.4859 192.566 76.8068C192.31 77.3352 191.944 77.1146 191.482 77.3014C192.131 77.5619 191.677 78.6069 192.049 79.3878C191.853 78.9757 191.662 79.1451 191.621 79.2781L191.595 77.6605C191.22 77.8295 191.207 77.4461 190.901 77.1287C191.765 77.1499 191.009 75.871 191.03 75.1912C190.765 75.2513 190.55 75.4836 190.876 76.1776C190.013 75.5963 191.392 74.8232 190.623 74.2245C190.679 74.404 190.754 74.4851 190.65 74.6014C190.727 74.1082 190.177 73.164 190.043 73.4846L190.099 73.6642C189.586 72.53 188.69 70.1536 189.261 69.7161C189.175 69.7409 188.554 70.1835 188.457 70.3071C188.754 69.6315 189.059 68.9491 189.349 68.2662C189.259 68.0498 189.161 67.8401 189.07 67.6308C188.453 67.797 187.709 67.9651 187.785 68.7056C187.589 68.4707 187.353 68.1774 187.288 67.5225C187.445 67.6707 188.276 67.6409 188.209 67.3687C187.298 66.9344 187.67 67.0276 186.78 66.4027C187.02 66.6252 187.728 65.9452 187.504 65.5177C187.407 65.6413 186.654 65.8587 186.639 66.0566L186.982 64.5888C186.954 64.928 186.308 64.9582 185.966 64.8237C186.184 64.8539 185.507 63.9045 185.449 63.5831L185.86 63.9473C185.148 62.7979 186.435 62.1982 185.803 61.0096C185.708 61.2397 184.945 61.8749 184.542 61.3196C184.695 61.0564 185.082 60.427 185.374 59.7158C185.144 59.2668 184.906 58.8316 184.669 58.3823C184.436 59.2307 184.22 60.172 184.14 60.7572C183.729 60.4001 183.806 60.7719 183.479 60.0921C183.13 59.9714 183.337 60.6251 183.421 60.8271L182.467 59.3558C182.985 59.1714 182.327 57.9249 182.759 57.7724L183.147 59.7169C183.665 59.5395 184.003 58.036 183.331 56.9663C182.99 56.7893 182.587 57.6307 182.415 57.6945C182.502 57.4641 182.181 56.4796 182.012 56.4443L182.001 57.0466C181.512 56.5303 182.092 55.7102 181.232 55.2355C181.057 55.0014 180.199 54.8387 180.455 54.6365C180.913 54.6978 181.712 54.4114 182.336 54.0682C182.178 53.7781 182.012 53.4948 181.846 53.2115L181.685 53.3538L181.599 53.1872L181.78 53.0883C181.615 52.7979 181.45 52.5004 181.285 52.2101C180.839 52.3549 180.782 53.3949 180.291 53.2684C180.408 53.181 180.443 52.8634 180.434 52.7354C180.172 52.5403 180.101 53.0763 179.835 52.4698C180.261 52.0902 179.1 51.355 180.082 51.9624C179.881 51.3373 179.629 51.4404 179.251 50.7868C179.534 50.7984 179.74 50.268 179.784 49.7167C179.638 49.4838 179.499 49.2442 179.352 49.0113C179.331 49.0104 179.303 49.0093 179.289 49.0087C178.981 48.5424 178.698 48.1904 178.421 47.86C178.042 47.412 177.676 47.0071 177.275 46.4164C177.098 46.395 176.64 45.9862 176.583 46.3314C176.57 46.1323 176.637 45.8939 176.437 45.5667C175.636 45.2149 176.839 46.3135 176.058 46.161C176.301 45.944 175.889 45.0976 175.756 44.5391C176.258 44.4037 176.524 45.5277 176.657 46.0933C176.853 45.9666 176.991 45.7312 177.066 45.4436C176.338 44.3502 175.596 43.2563 174.838 42.1831C174.154 41.5878 173.023 39.5988 171.951 38.7609C171.917 38.5539 171.836 38.267 171.884 38.1413C171.406 37.512 170.907 36.9031 170.422 36.2806C170.299 36.1621 170.176 36.0507 170.046 35.939L170.226 36.0386C169.734 35.4087 169.25 34.772 168.743 34.1557C168.706 34.2038 168.668 34.2448 168.604 34.2705L168.331 33.6496C168.331 33.6496 168.304 33.6131 168.284 33.591C168.224 33.6665 168.257 33.9089 168.077 33.8094C168.151 33.7273 168.171 33.5793 168.135 33.4147C167.905 33.143 167.69 32.8577 167.46 32.5859C167.439 32.578 167.426 32.5632 167.405 32.5553C167.405 32.5411 167.406 32.527 167.406 32.5128C167.217 32.2853 167.013 32.0642 166.824 31.8367C166.797 31.8214 166.762 31.7987 166.714 31.7684C166.702 31.7041 166.654 31.6596 166.621 31.6086C163.82 28.3317 160.872 25.1623 157.769 22.1426C154.974 19.419 159.438 15.3262 162.22 18.0421C162.595 18.4049 162.955 18.7883 163.323 19.1508C163.75 19.1186 164.204 19.0947 164.421 18.8199C164.458 19.8353 166.555 19.517 166.703 21.0971C167.005 21.1874 166.724 20.7576 166.952 20.7385C166.933 21.1986 167.133 21.5188 167.719 21.9327L167.723 21.8195C169.001 23.3323 169.851 23.7003 171.454 25.2478L171.059 25.3734C171.407 25.6996 171.563 25.6989 171.786 25.8002C171.704 26.591 170.884 24.8061 170.731 25.6081C171.724 25.5779 172.946 28.1307 173.884 27.8997C174.35 28.4647 173.411 28.015 173.878 28.5801L174.183 28.5784L174.062 28.9209C174.403 29.2609 174.786 29.2624 174.96 29.149C174.871 29.0745 174.795 28.8516 174.729 28.7425C175.34 29.0511 175.769 30.1748 175.97 30.2823L175.408 29.8267C176.523 31.5031 178.222 33.2956 179.005 35.1285L178.772 35.119C179.396 36.4917 179.624 35.9621 180.445 37.3712L180.448 37.3004C180.49 37.6708 180.665 38.075 180.934 38.4264C180.874 37.9702 181.712 38.8198 181.6 38.248C182.226 39.7626 181.837 39.0518 181.871 40.3011L182.252 40.338C182.227 40.7907 182.123 40.8928 182.498 41.6101C182.349 40.9163 183.164 41.7933 183.034 40.9797C184.515 42.0471 183.862 43.4456 185.098 43.5812C184.826 44.6761 183.904 42.5964 183.992 43.0609C183.566 42.9017 183.821 43.9331 184.181 44.3307C184.474 44.7823 185.554 44.55 186.258 45.7273C186.185 45.6109 186.236 45.5705 186.155 45.4608C186.603 45.7911 186.433 46.4648 187.057 46.8236C186.807 47.3806 187.504 47.5083 187.012 47.9136L186.484 46.7718C186.704 47.4685 186.425 48.4001 187.305 49.2373C187.375 49.0913 187.348 48.7073 187.309 48.4505C187.641 48.6555 187.524 49.0832 187.87 49.2959C188.376 48.8912 187.254 47.8952 187.262 47.0092C187.694 47.1829 187.606 48.4768 188.009 47.7985C187.518 48.7214 188.772 48.9215 188.647 50.058L188.948 49.815C188.97 49.9719 188.962 50.3261 189.102 50.5587L189.292 49.8929C189.293 50.7509 190.333 50.9778 190.487 51.7144C189.754 50.394 189.916 51.6414 189.358 51.2215C189.816 53.0412 190.72 51.7452 191.52 53.4937C191.347 53.2102 190.888 52.8368 190.927 53.2497C191.184 53.5651 191.551 53.963 191.844 54.0813C191.902 54.2184 191.94 54.3121 191.972 54.3985C192.206 55.0959 191.401 54.1412 191.464 54.7039L191.456 54.7107ZM202.707 82.83C202.73 82.6112 202.856 82.1342 202.59 82.0524C202.228 82.4063 202.485 82.5232 202.707 82.83ZM198.042 85.0783C198.43 85.2856 198.952 85.1864 199.058 84.8363C199.304 84.0238 199.584 83.2624 200.066 82.559C200.224 82.3314 199.939 82.022 199.654 81.8969C199.48 81.8188 199.281 81.8107 199.092 81.7675C198.738 81.9303 198.384 82.0718 198.044 82.2564C197.892 82.3353 197.786 82.487 197.653 82.6092C197.805 82.7217 197.942 82.8408 198.101 82.9324C198.177 82.978 198.291 82.9614 198.39 82.9725C198.086 83.4635 197.776 83.9542 197.404 84.5488C197.603 84.72 197.792 84.9475 198.042 85.0783ZM195.179 82.437C195.238 82.5529 195.464 82.5834 195.61 82.6461C195.892 82.5229 196 82.2934 195.869 82.0398C195.81 81.924 195.559 81.8145 195.437 81.8449C195.144 81.9109 195.048 82.1764 195.179 82.43L195.179 82.437ZM194.679 76.1062C194.784 75.9687 194.959 75.8412 194.98 75.6931C195.02 75.3899 194.646 75.1761 194.398 75.3644C194.273 75.4586 194.17 75.7238 194.214 75.8533C194.259 75.9756 194.512 76.0285 194.672 76.113L194.679 76.1062ZM193.748 80.1451C193.84 80.1488 193.995 80.1906 194.017 80.1561C194.154 79.9277 194.32 79.6934 194.366 79.44C194.427 79.1448 194.231 78.924 193.952 78.8133C193.868 78.7815 193.705 78.7678 193.683 78.8023C193.546 79.0307 193.387 79.2653 193.334 79.5184C193.28 79.7998 193.448 80.0335 193.741 80.1448L193.748 80.1451ZM193.44 81.6214C193.412 81.4289 193.328 81.2269 193.159 81.0215C193.088 81.2029 193.222 81.4069 193.44 81.6214ZM193.2 74.1385C193.262 73.9992 193.339 73.8605 193.373 73.713C193.382 73.6779 193.257 73.609 193.196 73.5498C193.133 73.689 193.057 73.8277 193.022 73.9681C193.014 74.0032 193.139 74.0721 193.2 74.1314L193.2 74.1385Z" fill="#316EFF"/>
<path d="M56.9675 150.225C57.3476 149.425 57.7289 148.597 57.3814 148.427C58.3734 147.921 59.1738 146.728 60.0083 145.393C60.8638 144.067 61.725 142.599 63.1053 141.443C63.397 140.725 62.5358 141.845 62.6107 141.401C63.3629 140.865 64.022 140.006 64.8532 138.232L64.6699 138.38C66.0436 135.997 66.7571 134.155 67.3965 132.217C67.7199 131.244 67.981 130.234 68.2683 129.104C68.3368 128.816 68.3982 128.528 68.4673 128.226C68.502 128.072 68.5364 127.924 68.5713 127.763L68.6307 127.524L68.7449 127.16C68.8399 126.916 68.8858 126.662 69.0378 126.413C69.1827 126.164 69.3279 125.907 69.515 125.667C69.7301 125.435 69.9523 125.203 70.2019 124.993C70.4716 124.813 70.7561 124.619 71.0666 124.483C70.8735 124.694 70.7068 124.957 70.5698 125.185C71.4674 124.563 72.1218 124.512 72.5942 124.403C73.0643 124.352 73.4282 124.296 73.893 124.371C74.4206 124.648 74.3192 124.701 73.9525 124.65C73.7691 124.629 73.5163 124.569 73.2042 124.57C73.0485 124.564 72.8928 124.557 72.7229 124.55C72.5519 124.572 72.3737 124.593 72.1956 124.614C71.8473 124.635 71.4859 124.805 71.1837 124.913C70.8865 125.071 70.6383 125.245 70.4768 125.38C70.1801 125.701 70.1825 125.815 70.6589 125.607C71.0284 125.069 72.2607 124.411 73.6617 124.652C74.3599 124.745 75.0641 125.036 75.7395 125.51C76.4 126.005 76.9249 126.693 77.2402 127.479C77.5268 128.271 77.5767 129.131 77.4169 129.918C77.3867 130.137 77.3532 130.263 77.3194 130.396C77.2855 130.53 77.2588 130.663 77.225 130.797C77.1647 131.056 77.1118 131.31 77.0598 131.541C76.8582 132.483 76.7429 133.223 76.8484 133.589C76.1546 135.645 76.6447 132.85 75.9372 134.892L75.9616 135.51L75.4773 135.908C75.0115 137.243 74.987 138.015 75.159 138.143C75.2717 137.814 75.5993 137.26 75.755 136.919C75.5404 137.832 74.9951 139.029 74.45 140.049C73.9049 141.069 73.3738 141.92 73.2551 142.22C73.5437 141.579 73.8181 140.938 74.0857 140.29C73.7328 140.942 73.3721 141.615 72.983 142.287C72.7918 142.626 72.5936 142.966 72.3954 143.305C72.2507 143.547 72.1061 143.789 71.9544 144.031C71.8846 144.177 71.7302 144.313 71.7238 144.469L71.946 144.931C72.2532 145.568 72.553 146.211 72.8599 146.855C74.219 149.683 75.579 152.489 76.6447 155.036L76.2948 154.752C77.1085 156.7 77.5685 157.413 78.0628 158.157C78.5641 158.901 79.0702 159.701 80.1571 161.731L80.1071 161.566C80.4113 162.45 80.9542 163.564 81.6048 164.648C81.4008 164.086 81.7663 164.512 82.1125 164.888C82.4658 165.264 82.7999 165.59 82.4956 164.882C84.5847 168.931 83.4109 166.948 84.4692 169.848L85.1045 170.264C85.4462 171.271 85.369 171.424 86.5791 173.388C85.7417 171.673 87.7734 174.351 86.8748 172.4C88.51 174.197 89.4113 175.737 90.1682 176.995C90.9545 178.225 91.5746 179.186 92.6214 179.768C93.3156 182.037 89.7247 176.742 90.3396 177.831C89.4876 177.165 90.9597 179.657 91.9545 180.818C92.4404 181.42 93.0792 181.751 93.8856 182.315C94.7068 182.867 95.6374 183.692 96.9482 185.1C96.6902 184.82 96.7141 184.757 96.4561 184.477C97.5887 185.388 98.1274 186.779 99.6025 187.81C99.9425 188.859 101.246 189.409 100.999 190.065C100.206 189.189 99.3826 188.333 98.6107 187.444C99.2377 188.235 99.7781 189.065 100.463 189.994C100.806 190.455 101.198 190.931 101.66 191.425C102.144 191.899 102.712 192.383 103.387 192.872C103.278 192.605 102.665 191.814 102.225 191.293C103.069 191.802 103.525 192.636 104.397 193.161C104.502 192.825 103.732 192.084 102.775 191.194C101.826 190.305 100.759 189.183 100.172 188.266C101.094 188.8 102.715 191.461 102.433 190.202C102.674 191.063 103.416 191.66 104.245 192.347C105.083 193.026 106.008 193.801 106.823 194.856L106.931 194.456C107.21 194.758 107.757 195.433 108.354 195.904L107.604 194.654C108.287 195.476 109.121 196.049 109.979 196.573C110.859 197.063 111.741 197.524 112.486 198.2C109.091 195.742 111.451 198.023 109.839 197.205C111.804 198.938 112.567 199.174 113.394 199.414C114.215 199.618 115.122 199.811 117.289 201.254C116.507 200.775 115.086 200.157 115.908 200.871C116.393 201.132 116.963 201.432 117.498 201.681C118.034 201.922 118.545 202.099 118.889 202.177C122.185 204.099 118.177 202.247 119.491 203.244C120.873 203.428 121.049 204.322 122.524 205.169L122.702 204.822C124.723 205.663 124.933 205.906 125.063 206.195C125.209 206.456 125.282 206.749 127.194 207.317C126.741 206.944 126.281 206.585 125.843 206.198C126.454 206.514 127.081 206.788 127.7 207.082L127.468 206.513C128.437 207.084 129.114 207.367 129.799 207.608C130.476 207.862 131.185 208.026 132.246 208.275C131.689 208.373 132.305 209.072 134.192 209.567C135.536 209.665 133.561 209.059 136.22 209.735C135.661 209.372 135.091 208.916 133.849 208.95C133.763 208.798 133.326 208.56 133.24 208.408C133.961 208.459 134.817 208.678 135.617 208.895C136.423 209.105 137.174 209.299 137.651 209.418C137.278 209.353 136.835 209.271 136.594 209.275C137.836 209.752 139.111 210.144 140.392 210.537C141.033 210.478 140.558 210.295 140.09 210.113C140.879 210.259 141.4 210.521 142.569 210.704C142.3 210.36 142.412 210.038 140.796 209.667L142.623 210.089L144.473 210.441C144.732 210.353 146.413 210.166 145.929 210.033C146.958 210.011 148.214 210.169 149.569 210.317C150.919 210.421 152.369 210.495 153.72 210.231C153.867 210.273 154.163 210.327 154.746 210.287C157.307 209.91 159.432 209.082 162.464 208.646C162.966 208.312 163.456 207.956 163.925 207.579C166.214 206.913 161.944 209.036 165.777 207.902C168.479 207.006 166.577 207.063 167.428 206.545C168.794 206.239 171.325 205.733 173.326 203.971C172.518 204.3 171.99 204.725 171.26 205.064C171.794 204.667 172.308 204.227 172.829 203.816C172.247 203.998 171.728 204.197 171.295 204.377C170.856 204.537 170.497 204.664 170.266 204.754C169.792 204.911 169.795 204.834 170.5 204.224C170.88 204.651 172.575 203.784 174.197 202.773C175.833 201.784 177.382 200.67 177.814 201.014L178.719 200.037C178.426 200.273 178.342 200.255 178.055 200.492C178.91 199.527 179.385 199.369 179.98 199.202C180.575 199.035 181.278 198.837 182.454 197.658C183.254 196.819 183.7 196.128 183.058 196.584C183.732 196.052 184.42 195.534 185.074 194.972C185.504 194.5 185.372 194.431 185.011 194.771C185.875 193.92 186.706 193.032 187.529 192.144L187.487 192.142C188.002 191.852 188.986 191.013 189.478 190.607C189.989 189.728 189.068 190.924 189.122 190.642C189.66 190.14 190.178 189.622 190.682 189.082C190.981 188.187 189.707 189.504 188.773 190.671C188.997 189.545 189.328 189.247 189.867 188.716C190.413 188.199 191.208 187.487 192.183 185.492L190.898 187.092C191.148 185.649 192.252 184.488 193.163 182.328C193.102 182.609 192.681 183.705 192.457 184.518C192.226 185.317 192.191 185.826 192.972 184.922C193.266 184.31 193.715 183.563 194.585 182.591C194.26 182.373 194.99 181.36 195.803 180.025L195.306 179.856C196.264 178.463 196.424 178.71 197.121 177.952C197.964 176.256 197.794 175.725 197.695 175.182C198.977 172.448 197.338 177.344 199.02 174.179C199.974 171.836 200.894 170.321 202.406 167.667C202.937 165.959 201.995 167.828 202.107 167.18L203.102 165.895C203.245 165.539 203.079 165.603 202.992 165.635C203.657 164.471 203.513 165.734 204.434 163.851C205.191 163.541 205.255 159.559 206.763 157.359C206.846 156.71 206.358 157.541 206.241 157.281C206.65 156.482 206.935 155.912 207.166 155.468C207.282 155.246 207.382 155.052 207.467 154.878C207.513 154.788 207.559 154.697 207.605 154.614C207.674 154.496 207.735 154.385 207.803 154.275C208.041 153.831 208.368 153.475 208.823 153.097C209.312 152.755 209.966 152.378 210.954 152.312C212.002 151.986 213.233 152.072 214.303 152.605C213.697 152.339 213.382 152.397 213.344 152.473C213.297 152.571 213.496 152.749 213.776 153.009C213.904 153.156 214.068 153.311 214.231 153.488C214.364 153.699 214.556 153.877 214.665 154.137C214.951 154.603 215.039 155.223 215.018 155.747C214.979 155.653 214.933 155.573 214.886 155.493C214.927 155.708 214.94 155.928 214.923 156.161C214.957 156.028 214.983 155.901 215.018 155.754C215.048 155.883 215.078 156.012 215.108 156.14C215.051 156.322 214.953 156.474 214.848 156.605C214.814 156.745 214.794 156.879 214.739 157.026C214.603 157.396 214.467 157.766 214.325 158.136C214.471 158.192 214.782 157.864 215.119 157.445C215.148 157.255 215.157 157.015 215.153 156.787C215.162 156.561 215.163 156.348 215.094 156.14C215.295 155.723 215.351 155.222 215.395 154.848C215.41 154.479 215.457 154.205 215.647 154.241C215.69 154.392 215.752 154.607 215.827 154.858C215.859 155.122 215.917 155.429 215.926 155.741C215.994 155.446 216.003 155.227 216.09 155.365C216.19 155.511 216.125 156.069 215.864 156.739C215.977 157.076 216.057 157.548 216.153 157.8L215.873 157.895C215.49 159.29 215.093 160.678 214.689 162.065C213.019 164.741 211.25 166.916 209.051 171.272C209.926 170.336 209.787 171.316 210.27 171.463C210.329 170.026 212.018 168.075 212.868 165.67C212.42 166.921 212.746 166.743 212.949 166.461C212.221 167.799 211.485 169.131 210.722 170.454C211.138 170.52 210.617 171.463 210.279 172.612C209.922 171.463 208.376 175.47 207.321 177.001C207.51 177.221 207.968 176.956 208.882 174.888C208.346 177.404 206.625 177.362 205.96 179.753C206.221 179.267 206.325 178.988 206.55 178.855C206.146 179.37 205.617 180.341 205.259 181.121C204.887 181.893 204.686 182.466 204.974 182.201L205.249 181.723C204.409 183.355 203.026 185.78 201.662 187.759C200.983 188.752 200.309 189.632 199.766 190.269C199.201 190.899 198.767 191.292 198.553 191.305C198.607 191.385 199.507 191.379 199.746 191.275C198.474 192.216 197.175 193.099 195.864 193.946C195.445 194.503 195.011 195.052 194.577 195.595C194.907 196.197 195.237 196.99 196.724 195.463C196.254 196.209 195.663 197.135 194.299 198.419C194.625 197.901 194.595 196.73 194.039 197.317C193.584 198.39 193.392 198.744 193.143 199.124C192.893 199.511 192.612 199.953 191.868 201.156C192.395 200.419 191.029 200.519 190.08 201.544C190.331 201.483 190.653 202.269 191.077 201.953C190.057 202.614 188.97 203.193 187.932 203.796C188.668 203.301 188.586 204.262 188.16 204.975C188.239 204.787 187.664 205.302 186.979 205.941C186.3 206.579 185.442 207.282 185.055 207.557L186.079 206.436C184.592 207.786 183.592 208.128 182.615 208.449C182.133 208.621 181.638 208.771 181.068 209.01C180.491 209.242 179.865 209.627 179.043 210.147C179.536 210.053 180.681 210.483 179.024 211.656C178.768 211.681 178.348 211.714 177.814 211.763C177.281 211.805 176.627 211.849 175.914 211.933C175.821 211.943 175.714 211.96 175.614 211.978C174.345 212.67 173.043 213.319 171.699 213.916C171.956 213.891 172.205 213.866 172.468 213.834C174.208 213.6 176.067 213.209 177.332 212.799C176.111 213.707 177.141 213.316 175.107 214.339C174.501 214.924 176.399 214.13 176.98 213.785C176.23 214.257 175.44 214.672 174.657 215.094C173.881 215.53 173.078 215.908 172.269 216.293C172.26 215.988 171.296 216.31 170.294 216.546C169.298 216.796 168.317 217.053 168.334 216.806L171.102 216.04C172.008 215.737 172.934 215.449 173.841 215.117C173.801 214.541 170.237 215.168 166.812 216.382C165.991 216.88 167.784 217.081 167.776 217.272C167.514 217.262 166.648 217.453 165.81 217.674C165.523 217.74 165.237 217.8 164.986 217.867C164.883 217.799 164.779 217.738 164.667 217.698C164.485 217.634 164.215 217.829 163.985 217.911C164.017 217.991 164.042 218.07 164.074 218.149C164.045 218.162 164.016 218.175 164.002 218.189L164.087 218.178C164.119 218.257 164.152 218.33 164.199 218.388C164.199 218.388 164.213 218.403 164.22 218.41C163.763 218.484 163.315 218.522 162.852 218.553C161.936 218.593 160.997 218.683 159.828 219.181C159.233 219.334 158.261 219.875 157.672 220.043C157.708 219.874 157.735 219.712 157.742 219.542C158.027 219.171 158.18 218.716 158.197 218.299C158.202 218.178 158.186 218.064 158.169 217.957C157.234 218.11 156.307 218.243 155.373 218.353L155.487 218.507L154.939 218.562L154.945 218.414C153.97 218.516 152.995 218.589 152.029 218.649C151.935 218.851 152.331 219.066 152.75 219.224C153.315 219.446 153.916 219.655 153.338 219.929C153.273 219.778 152.489 219.71 152.165 219.64C151.373 219.771 152.306 220.029 151.127 220.059C151.273 219.788 151.419 219.517 151.557 219.254C151.255 218.504 150.524 218.006 150.651 217.153C150.651 217.153 150.658 217.154 150.665 217.147L150.666 217.133C151.135 217.095 151.639 217.094 151.811 216.52C151.95 216.072 152.053 215.623 152.15 215.166C152.159 215.109 152.043 214.998 151.967 214.967C151.883 214.935 151.748 214.936 151.689 214.984C151.41 215.22 151.033 215.439 150.9 215.745C150.719 216.164 150.735 216.66 150.666 217.126L150.652 217.125C150.651 217.132 150.651 217.139 150.651 217.146C149.907 217.47 150.104 218.216 149.91 218.789C149.037 218.81 148.187 218.797 147.384 218.317C146.996 218.089 146.726 218.468 146.472 218.783C146.225 219.078 146.149 219.38 146.158 219.678C145.946 219.669 145.705 219.66 145.43 219.627C145.892 219.419 144.969 218.942 143.773 218.538C143.624 218.532 143.477 218.505 143.321 218.491C143.289 218.419 143.256 218.354 143.223 218.282C143.164 218.336 143.041 218.416 143.053 218.452C143.053 218.452 143.053 218.459 143.053 218.466C142.446 218.406 141.831 218.352 141.224 218.278C141.161 217.921 141.119 217.558 141.048 217.207C140.331 216.88 140.056 217.706 139.495 217.746C139.011 217.783 138.533 217.849 138.063 217.908C138.063 217.908 138.055 217.921 138.048 217.928C137.455 217.869 136.89 217.81 136.342 217.688C134.928 217.418 133.518 217.204 131.786 216.75C131.437 216.779 129.729 216.418 130.37 216.87C129.898 216.624 129.5 216.302 128.443 215.961C126.231 215.772 130.792 216.766 129.046 216.823C129.024 216.652 128.371 216.327 127.542 215.974C126.713 215.614 125.748 215.107 125.04 214.737C125.315 214.614 126.007 214.834 126.823 215.186L126.699 215.259L126.86 215.315L126.844 215.194C126.948 215.241 127.052 215.288 127.164 215.335C128.141 215.715 129.227 216.199 129.958 216.534C130.024 216.317 129.802 216.017 129.363 215.659C127.13 214.95 124.931 214.116 122.771 213.191C122.757 213.183 122.736 213.168 122.722 213.161C122.708 213.153 122.687 213.159 122.666 213.151C121.3 212.564 119.943 211.948 118.602 211.283C118.266 211.156 117.876 210.991 117.446 210.761C116.536 210.298 115.419 209.693 114.233 209.056C113.629 208.747 113.034 208.383 112.446 208.011C111.851 207.646 111.25 207.282 110.669 206.925C110.08 206.574 109.506 206.232 108.959 205.912C108.427 205.571 107.922 205.252 107.459 204.971C107.105 204.602 106.565 204.098 106.405 203.857C104.677 202.603 102.986 201.285 101.348 199.914C100.81 199.552 100.324 199.127 99.8082 198.731L100.298 199.056C100.504 199.234 100.71 199.391 100.923 199.563C98.949 197.894 97.0422 196.15 95.209 194.338C95.1928 194.387 95.156 194.421 95.0849 194.425L93.9431 193.045C93.8681 192.971 93.7934 192.89 93.7185 192.816C93.7132 192.944 94.0336 193.432 93.6001 193.109C93.6328 193.004 93.5093 192.73 93.2899 192.373C92.5352 191.584 91.802 190.788 91.0764 189.979C91.0764 189.979 91.0625 189.971 91.0628 189.964C91.0628 189.964 91.0563 189.949 91.0493 189.949C90.69 189.544 90.3237 189.139 89.9645 188.735C89.7342 188.47 89.5182 188.206 89.295 187.942C89.2265 187.882 89.1448 187.801 89.0358 187.69C88.9499 187.538 88.8348 187.405 88.72 187.266C79.2552 175.981 71.9981 163.07 65.6342 149.821C63.2566 152.652 60.5629 155.236 57.5838 157.518C54.5098 159.866 50.3872 155.437 53.4833 153.067C54.6909 152.145 55.8442 151.165 56.9424 150.146L56.9675 150.225ZM214.994 158.596C214.767 159.111 214.565 159.72 214.402 160.415C214.679 160.044 214.862 159.378 214.994 158.596ZM192.946 185.034C192.552 185.472 191.676 186.273 191.621 186.76C192.363 186.471 192.491 185.93 192.946 185.034ZM154.979 217.238C155.038 217.177 155.098 217.115 155.157 217.061C155.018 216.992 154.886 216.908 154.747 216.86C154.711 216.851 154.636 216.969 154.577 217.03C154.715 217.1 154.847 217.169 154.986 217.239L154.979 217.238Z" fill="#316EFF"/>
</g>
<defs>
<clipPath id="clip0_3_528">
<rect width="212.028" height="255.228" fill="white" transform="matrix(-0.999165 -0.0408695 -0.0408695 0.999165 222.282 8.66547)"/>
</clipPath>
</defs>
</svg>
